<svg xmlns="http://www.w3.org/2000/svg" xmlns:xlink="http://www.w3.org/1999/xlink" width="1080" zoomAndPan="magnify" viewBox="0 0 810 809.999993" height="1080" preserveAspectRatio="xMidYMid meet" version="1.0"><path fill="#000000" d="M 483.84375 548.90625 C 480.363281 540.949219 476.382812 533.488281 473.398438 525.53125 C 471.40625 519.558594 467.925781 511.105469 467.925781 506.128906 C 467.425781 496.183594 463.945312 488.222656 457.476562 481.757812 C 439.070312 463.355469 421.15625 473.300781 406.234375 480.761719 L 355.484375 509.113281 C 356.480469 502.152344 357.476562 494.691406 356.976562 487.230469 C 356.480469 475.789062 350.511719 466.339844 340.558594 460.371094 C 329.117188 453.902344 314.6875 453.902344 301.753906 460.371094 C 290.3125 466.339844 286.828125 475.789062 284.339844 483.746094 C 279.363281 497.675781 272.898438 513.589844 266.925781 528.015625 C 264.441406 534.484375 261.953125 539.953125 259.960938 544.929688 L 89.808594 631.476562 C 84.835938 633.964844 82.84375 639.933594 85.332031 644.90625 C 87.820312 649.882812 93.789062 651.871094 98.765625 649.382812 L 271.902344 562.335938 C 273.890625 561.34375 275.882812 559.351562 276.878906 556.867188 C 278.867188 551.394531 298.269531 506.128906 303.246094 491.207031 C 305.734375 484.246094 306.730469 481.261719 311.207031 479.269531 C 317.675781 475.789062 325.136719 475.789062 330.609375 478.773438 C 333.59375 480.265625 337.078125 483.746094 337.078125 489.21875 C 338.074219 505.632812 331.105469 526.523438 331.105469 526.523438 C 329.613281 530.503906 331.105469 534.484375 334.09375 537.46875 C 337.078125 539.953125 341.554688 540.453125 345.535156 538.460938 L 416.183594 499.167969 C 433.597656 489.714844 437.578125 490.214844 444.042969 496.679688 C 447.527344 500.160156 448.523438 504.636719 448.523438 508.121094 C 449.515625 520.554688 454.988281 535.476562 460.960938 546.421875 C 465.933594 555.375 470.414062 564.824219 472.402344 574.773438 C 475.386719 590.691406 468.921875 603.125 453.996094 611.082031 L 402.75 639.933594 C 399.765625 640.925781 348.023438 640.429688 348.023438 640.429688 C 340.558594 640.429688 331.605469 643.414062 326.132812 646.398438 L 229.117188 696.140625 C 224.140625 698.625 222.152344 704.59375 224.636719 709.570312 C 227.125 714.542969 233.097656 716.535156 238.070312 714.046875 L 335.085938 664.304688 C 339.066406 662.316406 345.039062 660.824219 347.523438 660.824219 C 347.523438 660.824219 384.339844 660.824219 385.335938 660.824219 C 396.28125 661.320312 405.734375 661.320312 411.707031 657.839844 L 462.453125 628.492188 C 484.839844 616.554688 495.289062 595.664062 490.8125 571.289062 C 489.816406 563.332031 486.832031 555.871094 483.84375 548.90625 Z M 483.84375 548.90625 " fill-opacity="1" fill-rule="nonzero"/><path fill="#000000" d="M 283.34375 590.691406 C 280.859375 585.714844 274.886719 583.726562 269.914062 586.710938 L 208.21875 619.042969 C 203.246094 621.527344 201.253906 627.496094 204.238281 632.472656 C 206.230469 635.953125 209.710938 637.941406 213.195312 637.941406 C 214.6875 637.941406 216.179688 637.445312 217.671875 636.949219 L 279.363281 604.617188 C 283.84375 601.632812 285.832031 595.664062 283.34375 590.691406 Z M 283.34375 590.691406 " fill-opacity="1" fill-rule="nonzero"/><path fill="#000000" d="M 318.171875 357.902344 C 313.195312 359.894531 310.707031 365.863281 313.195312 370.835938 C 315.683594 375.808594 321.15625 378.296875 326.132812 375.808594 C 331.105469 373.820312 333.59375 367.851562 331.105469 362.878906 C 329.117188 358.402344 323.148438 355.914062 318.171875 357.902344 Z M 318.171875 357.902344 " fill-opacity="1" fill-rule="nonzero"/><path fill="#000000" d="M 720.167969 198.234375 C 717.679688 193.261719 711.710938 191.273438 706.734375 193.757812 L 677.378906 208.683594 C 672.40625 211.167969 670.414062 217.136719 672.902344 222.113281 C 675.390625 227.085938 681.359375 229.074219 686.335938 226.589844 L 715.691406 211.667969 C 720.664062 209.179688 722.65625 203.210938 720.167969 198.234375 Z M 720.167969 198.234375 " fill-opacity="1" fill-rule="nonzero"/><path fill="#000000" d="M 662.453125 191.769531 C 667.429688 194.257812 673.402344 192.265625 675.886719 187.292969 L 680.863281 177.34375 C 683.351562 172.371094 681.359375 166.402344 676.386719 163.914062 C 671.410156 161.429688 665.441406 163.417969 662.953125 168.390625 L 657.976562 178.339844 C 655.488281 183.3125 657.480469 189.28125 662.453125 191.769531 Z M 662.453125 191.769531 " fill-opacity="1" fill-rule="nonzero"/><path fill="#000000" d="M 703.25 248.472656 L 693.300781 243.5 C 688.324219 241.011719 682.355469 243.003906 679.867188 247.976562 C 677.378906 252.949219 679.371094 258.917969 684.347656 261.40625 L 694.296875 266.378906 C 695.789062 266.878906 697.28125 267.375 698.773438 267.375 C 702.257812 267.375 705.738281 265.386719 707.730469 261.902344 C 710.21875 256.929688 708.226562 250.960938 703.25 248.472656 Z M 703.25 248.472656 " fill-opacity="1" fill-rule="nonzero"/><path fill="#000000" d="M 635.589844 290.753906 C 654.496094 276.328125 662.453125 248.972656 652.503906 225.097656 C 643.050781 201.21875 618.671875 188.289062 595.289062 193.261719 C 595.289062 193.261719 560.464844 108.703125 560.464844 108.703125 C 553.996094 93.285156 532.105469 94.277344 526.132812 109.199219 C 518.671875 129.097656 480.859375 213.65625 357.476562 290.753906 C 356.480469 289.757812 354.492188 287.769531 352.5 286.773438 C 347.027344 284.785156 341.058594 285.78125 336.082031 288.265625 L 254.988281 325.074219 C 246.03125 329.054688 241.554688 338.503906 242.546875 347.957031 C 238.570312 349.449219 234.589844 350.941406 230.609375 352.433594 C 223.644531 354.917969 218.171875 360.390625 215.183594 367.851562 C 211.703125 375.3125 211.703125 384.265625 215.183594 392.222656 L 228.617188 422.070312 C 232.101562 430.027344 238.570312 435.996094 246.03125 438.980469 C 252.996094 441.46875 260.957031 440.96875 267.425781 437.488281 C 270.90625 435.5 274.390625 434.007812 277.871094 432.015625 C 280.359375 437.488281 284.339844 441.964844 289.8125 443.953125 C 294.789062 445.945312 301.257812 445.945312 306.230469 443.457031 L 323.644531 435.5 C 330.113281 435.5 336.578125 436.492188 343.046875 438.484375 C 341.058594 435.5 338.570312 432.515625 336.082031 429.53125 L 367.921875 415.105469 L 394.789062 464.347656 C 394.789062 464.347656 407.226562 457.882812 412.699219 455.394531 L 385.835938 406.648438 L 386.828125 406.152344 C 395.289062 402.171875 399.765625 393.714844 399.265625 384.761719 C 513.199219 355.914062 598.273438 377.800781 644.542969 397.695312 C 659.46875 404.164062 674.894531 387.746094 668.921875 372.824219 Z M 634.59375 233.054688 C 640.066406 246.484375 637.082031 261.902344 627.628906 271.355469 L 603.746094 212.660156 C 616.683594 211.667969 629.121094 219.625 634.59375 233.054688 Z M 259.464844 421.570312 C 254.988281 424.058594 249.515625 420.078125 247.523438 415.601562 C 247.523438 415.601562 234.089844 385.757812 234.089844 385.757812 C 232.101562 381.28125 233.59375 374.816406 238.570312 372.824219 C 242.546875 371.332031 246.527344 369.839844 250.507812 368.347656 L 270.90625 415.601562 C 266.925781 417.09375 262.945312 419.085938 259.464844 421.570312 Z M 379.863281 390.234375 C 379.863281 390.234375 298.769531 427.042969 298.769531 427.042969 C 297.773438 427.539062 296.777344 426.546875 296.777344 425.550781 L 262.945312 347.457031 C 262.449219 345.964844 262.945312 344.972656 263.941406 344.472656 C 263.941406 344.472656 345.039062 307.664062 345.039062 307.664062 C 345.535156 307.664062 345.535156 307.664062 346.03125 307.664062 C 346.53125 307.664062 346.53125 308.164062 347.027344 309.15625 L 380.859375 386.753906 C 381.355469 388.246094 380.859375 389.738281 379.863281 390.234375 Z M 394.292969 367.851562 L 368.917969 308.660156 C 445.535156 260.910156 490.8125 209.675781 516.183594 171.375 C 516.183594 171.375 520.164062 181.324219 520.164062 181.324219 C 522.15625 186.296875 528.125 188.785156 533.101562 186.796875 C 538.074219 184.804688 540.5625 178.835938 538.574219 173.863281 L 529.121094 150.484375 C 536.582031 137.054688 541.558594 126.609375 544.046875 119.644531 L 651.507812 379.789062 C 601.261719 359.394531 512.203125 337.511719 394.292969 367.851562 Z M 394.292969 367.851562 " fill-opacity="1" fill-rule="nonzero"/></svg>