<svg xmlns="http://www.w3.org/2000/svg" xmlns:xlink="http://www.w3.org/1999/xlink" width="1080" zoomAndPan="magnify" viewBox="0 0 810 809.999993" height="1080" preserveAspectRatio="xMidYMid meet" version="1.0"><defs><clipPath id="63a7e6a5ee"><path d="M 176.175781 81 L 633.675781 81 L 633.675781 729 L 176.175781 729 Z M 176.175781 81 " clip-rule="nonzero"/></clipPath></defs><path fill="#000000" d="M 404.976562 293.644531 C 453.222656 293.644531 492.472656 254.382812 492.472656 206.125 C 492.472656 157.863281 453.214844 118.601562 404.976562 118.601562 C 356.734375 118.601562 317.480469 157.863281 317.480469 206.125 C 317.480469 254.382812 356.730469 293.644531 404.976562 293.644531 Z M 404.976562 128.875 C 447.558594 128.875 482.203125 163.527344 482.203125 206.125 C 482.203125 248.71875 447.558594 283.375 404.976562 283.375 C 362.394531 283.375 327.75 248.71875 327.75 206.125 C 327.75 163.527344 362.394531 128.875 404.976562 128.875 Z M 404.976562 128.875 " fill-opacity="1" fill-rule="nonzero"/><path fill="#000000" d="M 404.976562 239.304688 C 395.234375 239.304688 387.3125 247.210938 387.3125 256.921875 C 387.3125 266.664062 395.234375 274.589844 404.976562 274.589844 C 414.71875 274.589844 422.640625 266.664062 422.640625 256.921875 C 422.640625 247.210938 414.71875 239.304688 404.976562 239.304688 Z M 404.976562 239.304688 " fill-opacity="1" fill-rule="nonzero"/><path fill="#000000" d="M 404.976562 228.980469 C 414.828125 228.980469 422.839844 220.921875 423.601562 210.234375 L 426.773438 165.328125 C 426.84375 164.636719 426.851562 163.957031 426.851562 163.339844 C 426.851562 150.140625 417.039062 139.402344 404.976562 139.402344 C 399.210938 139.402344 393.765625 141.832031 389.664062 146.246094 C 385.039062 151.210938 382.671875 158.121094 383.167969 165.195312 L 386.351562 210.242188 C 387.113281 220.921875 395.121094 228.980469 404.976562 228.980469 Z M 404.976562 228.980469 " fill-opacity="1" fill-rule="nonzero"/><g clip-path="url(#63a7e6a5ee)"><path fill="#000000" d="M 633.433594 636.695312 C 633.585938 636.253906 633.679688 635.804688 633.707031 635.335938 C 633.710938 635.222656 633.773438 635.125 633.773438 635.007812 L 633.773438 86.550781 C 633.773438 83.71875 631.476562 81.414062 628.636719 81.414062 L 181.308594 81.414062 C 178.46875 81.414062 176.175781 83.71875 176.175781 86.550781 L 176.175781 723.449219 C 176.175781 726.289062 178.46875 728.585938 181.308594 728.585938 L 530.3125 728.585938 C 530.964844 728.585938 531.609375 728.445312 532.21875 728.199219 C 532.480469 728.089844 532.691406 727.910156 532.933594 727.761719 C 533.203125 727.597656 533.507812 727.484375 533.75 727.265625 L 632.074219 638.816406 C 632.109375 638.78125 632.128906 638.734375 632.164062 638.703125 C 632.289062 638.585938 632.371094 638.449219 632.480469 638.320312 C 632.769531 637.980469 633.019531 637.625 633.207031 637.234375 C 633.300781 637.0625 633.367188 636.882812 633.433594 636.695312 Z M 186.445312 91.6875 L 623.503906 91.6875 L 623.503906 629.867188 L 530.3125 629.867188 C 527.472656 629.867188 525.179688 632.160156 525.179688 635 L 525.179688 718.3125 L 186.445312 718.3125 Z M 186.445312 91.6875 " fill-opacity="1" fill-rule="nonzero"/></g><path fill="#000000" d="M 227.984375 342.492188 L 438.558594 342.492188 C 441.398438 342.492188 443.691406 340.191406 443.691406 337.355469 C 443.691406 334.519531 441.398438 332.21875 438.558594 332.21875 L 227.984375 332.21875 C 225.144531 332.21875 222.847656 334.519531 222.847656 337.355469 C 222.847656 340.191406 225.144531 342.492188 227.984375 342.492188 Z M 227.984375 342.492188 " fill-opacity="1" fill-rule="nonzero"/><path fill="#000000" d="M 227.984375 385.738281 L 572.15625 385.738281 C 574.996094 385.738281 577.292969 383.4375 577.292969 380.601562 C 577.292969 377.769531 574.996094 375.464844 572.15625 375.464844 L 227.984375 375.464844 C 225.144531 375.464844 222.847656 377.769531 222.847656 380.601562 C 222.847656 383.4375 225.144531 385.738281 227.984375 385.738281 Z M 227.984375 385.738281 " fill-opacity="1" fill-rule="nonzero"/><path fill="#000000" d="M 227.984375 445.628906 L 572.15625 445.628906 C 574.996094 445.628906 577.292969 443.332031 577.292969 440.492188 C 577.292969 437.652344 574.996094 435.355469 572.15625 435.355469 L 227.984375 435.355469 C 225.144531 435.355469 222.847656 437.652344 222.847656 440.492188 C 222.847656 443.332031 225.144531 445.628906 227.984375 445.628906 Z M 227.984375 445.628906 " fill-opacity="1" fill-rule="nonzero"/><path fill="#000000" d="M 375.085938 501.5625 L 250.777344 501.5625 C 247.9375 501.5625 245.640625 503.859375 245.640625 506.699219 C 245.640625 509.539062 247.9375 511.835938 250.777344 511.835938 L 375.085938 511.835938 C 377.925781 511.835938 380.222656 509.539062 380.222656 506.699219 C 380.222656 503.859375 377.925781 501.5625 375.085938 501.5625 Z M 375.085938 501.5625 " fill-opacity="1" fill-rule="nonzero"/><path fill="#000000" d="M 375.085938 546.246094 L 250.777344 546.246094 C 247.9375 546.246094 245.640625 548.542969 245.640625 551.382812 C 245.640625 554.222656 247.9375 556.519531 250.777344 556.519531 L 375.085938 556.519531 C 377.925781 556.519531 380.222656 554.222656 380.222656 551.382812 C 380.222656 548.542969 377.925781 546.246094 375.085938 546.246094 Z M 375.085938 546.246094 " fill-opacity="1" fill-rule="nonzero"/><path fill="#000000" d="M 375.085938 590.984375 L 250.777344 590.984375 C 247.9375 590.984375 245.640625 593.28125 245.640625 596.121094 C 245.640625 598.960938 247.9375 601.257812 250.777344 601.257812 L 375.085938 601.257812 C 377.925781 601.257812 380.222656 598.960938 380.222656 596.121094 C 380.222656 593.28125 377.925781 590.984375 375.085938 590.984375 Z M 375.085938 590.984375 " fill-opacity="1" fill-rule="nonzero"/><path fill="#000000" d="M 477.683594 640.550781 L 227.984375 640.550781 C 225.144531 640.550781 222.847656 642.84375 222.847656 645.683594 C 222.847656 648.527344 225.144531 650.820312 227.984375 650.820312 L 477.683594 650.820312 C 480.523438 650.820312 482.816406 648.527344 482.816406 645.683594 C 482.816406 642.84375 480.519531 640.550781 477.683594 640.550781 Z M 477.683594 640.550781 " fill-opacity="1" fill-rule="nonzero"/></svg>