<svg xmlns="http://www.w3.org/2000/svg" xmlns:xlink="http://www.w3.org/1999/xlink" width="1080" zoomAndPan="magnify" viewBox="0 0 810 809.999993" height="1080" preserveAspectRatio="xMidYMid meet" version="1.0"><defs><clipPath id="10275e955d"><path d="M 88.191406 88.191406 L 721.941406 88.191406 L 721.941406 721.941406 L 88.191406 721.941406 Z M 88.191406 88.191406 " clip-rule="nonzero"/></clipPath></defs><g clip-path="url(#10275e955d)"><path fill="#000000" d="M 627.027344 272.085938 L 627.027344 296.804688 L 705.132812 357.113281 L 607.253906 412.976562 L 607.253906 118.347656 C 607.253906 102.035156 593.90625 88.6875 577.59375 88.6875 L 241.4375 88.6875 C 225.125 88.6875 211.777344 102.035156 211.777344 118.347656 L 211.777344 418.414062 L 105.988281 358.597656 L 192.003906 291.367188 L 192.003906 266.15625 L 92.144531 344.261719 C 90.664062 345.746094 89.179688 347.226562 88.6875 349.207031 L 88.191406 348.710938 L 88.191406 691.785156 C 88.191406 708.101562 101.539062 721.445312 117.851562 721.445312 L 691.292969 721.445312 C 707.605469 721.445312 720.953125 708.101562 720.953125 691.785156 L 720.953125 352.171875 C 721.941406 348.21875 720.457031 344.261719 717.492188 341.789062 Z M 231.550781 118.347656 C 231.550781 112.910156 236 108.460938 241.4375 108.460938 L 577.59375 108.460938 C 583.03125 108.460938 587.480469 112.910156 587.480469 118.347656 L 587.480469 423.851562 L 524.203125 459.445312 L 284.445312 459.445312 L 231.550781 429.289062 Z M 489.597656 479.21875 L 437.199219 508.878906 L 371.945312 508.878906 L 319.546875 479.21875 Z M 701.179688 691.785156 C 701.179688 697.222656 696.730469 701.671875 691.292969 701.671875 L 117.851562 701.671875 C 112.414062 701.671875 107.964844 697.222656 107.964844 691.785156 L 107.964844 382.328125 L 389.742188 541.503906 C 398.640625 546.449219 410.011719 546.449219 418.910156 541.503906 L 701.179688 382.328125 Z M 701.179688 691.785156 " fill-opacity="1" fill-rule="nonzero"/></g><path fill="#000000" d="M 271.097656 157.894531 L 369.96875 157.894531 C 375.40625 157.894531 379.855469 153.445312 379.855469 148.007812 C 379.855469 142.570312 375.40625 138.121094 369.96875 138.121094 L 271.097656 138.121094 C 265.660156 138.121094 261.210938 142.570312 261.210938 148.007812 C 261.210938 153.445312 265.660156 157.894531 271.097656 157.894531 Z M 271.097656 157.894531 " fill-opacity="1" fill-rule="nonzero"/><path fill="#000000" d="M 271.097656 207.328125 L 369.96875 207.328125 C 375.40625 207.328125 379.855469 202.878906 379.855469 197.441406 C 379.855469 192.003906 375.40625 187.554688 369.96875 187.554688 L 271.097656 187.554688 C 265.660156 187.554688 261.210938 192.003906 261.210938 197.441406 C 261.210938 202.878906 265.660156 207.328125 271.097656 207.328125 Z M 271.097656 207.328125 " fill-opacity="1" fill-rule="nonzero"/><path fill="#000000" d="M 261.210938 281.480469 L 557.820312 281.480469 C 563.257812 281.480469 567.707031 277.03125 567.707031 271.59375 C 567.707031 266.15625 563.257812 261.707031 557.820312 261.707031 L 261.210938 261.707031 C 255.773438 261.707031 251.324219 266.15625 251.324219 271.59375 C 251.324219 277.03125 255.773438 281.480469 261.210938 281.480469 Z M 261.210938 281.480469 " fill-opacity="1" fill-rule="nonzero"/><path fill="#000000" d="M 261.210938 330.914062 L 557.820312 330.914062 C 563.257812 330.914062 567.707031 326.464844 567.707031 321.027344 C 567.707031 315.589844 563.257812 311.140625 557.820312 311.140625 L 261.210938 311.140625 C 255.773438 311.140625 251.324219 315.589844 251.324219 321.027344 C 251.324219 326.464844 255.773438 330.914062 261.210938 330.914062 Z M 261.210938 330.914062 " fill-opacity="1" fill-rule="nonzero"/><path fill="#000000" d="M 261.210938 380.347656 L 557.820312 380.347656 C 563.257812 380.347656 567.707031 375.898438 567.707031 370.460938 C 567.707031 365.023438 563.257812 360.574219 557.820312 360.574219 L 261.210938 360.574219 C 255.773438 360.574219 251.324219 365.023438 251.324219 370.460938 C 251.324219 375.898438 255.773438 380.347656 261.210938 380.347656 Z M 261.210938 380.347656 " fill-opacity="1" fill-rule="nonzero"/><path fill="#000000" d="M 567.707031 419.898438 C 567.707031 414.460938 563.257812 410.011719 557.820312 410.011719 L 261.210938 410.011719 C 255.773438 410.011719 251.324219 414.460938 251.324219 419.898438 C 251.324219 425.335938 255.773438 429.785156 261.210938 429.785156 L 557.820312 429.785156 C 563.257812 429.785156 567.707031 425.335938 567.707031 419.898438 Z M 567.707031 419.898438 " fill-opacity="1" fill-rule="nonzero"/></svg>