<svg width="882" height="768" viewBox="0 0 882 768" fill="none" xmlns="http://www.w3.org/2000/svg">
<path d="M624.3 565.6L104.3 550.7C92.6082 550.375 81.4358 545.799 72.876 537.828C64.3162 529.857 58.9561 519.039 57.8 507.4L32.7 259.4C32.0317 252.762 32.7495 246.057 34.8079 239.71C36.8662 233.364 40.2203 227.514 44.6575 222.532C49.0948 217.549 54.5185 213.542 60.5851 210.766C66.6516 207.989 73.2288 206.502 79.9 206.4L658.7 198.4C665.583 198.307 672.406 199.689 678.71 202.453C685.014 205.217 690.654 209.299 695.249 214.424C699.843 219.55 703.287 225.6 705.349 232.168C707.41 238.735 708.042 245.668 707.2 252.5L673.5 523.4C671.998 535.285 666.13 546.187 657.037 553.987C647.944 561.786 636.275 565.925 624.3 565.6Z" fill="#EAF9F3"/>
<mask id="mask0_24_359" style="mask-type:luminance" maskUnits="userSpaceOnUse" x="32" y="198" width="676" height="368">
<path d="M624.3 565.6L104.3 550.7C92.6082 550.375 81.4358 545.799 72.876 537.828C64.3162 529.857 58.9561 519.039 57.8 507.4L32.7 259.4C32.0317 252.762 32.7495 246.057 34.8079 239.71C36.8662 233.364 40.2203 227.514 44.6575 222.532C49.0948 217.549 54.5185 213.542 60.5851 210.766C66.6516 207.989 73.2288 206.502 79.9 206.4L658.7 198.4C665.583 198.307 672.406 199.689 678.71 202.453C685.014 205.217 690.654 209.299 695.249 214.424C699.843 219.55 703.287 225.6 705.349 232.168C707.41 238.735 708.042 245.668 707.2 252.5L673.5 523.4C671.998 535.285 666.13 546.187 657.037 553.987C647.944 561.786 636.275 565.925 624.3 565.6Z" fill="white"/>
</mask>
<g mask="url(#mask0_24_359)">
<path d="M477.3 691.9H892.8C896.778 691.9 900.594 690.32 903.407 687.507C906.22 684.694 907.8 680.878 907.8 676.9V441.2C907.8 437.222 906.22 433.406 903.407 430.593C900.594 427.78 896.778 426.2 892.8 426.2H477.3C473.322 426.2 469.507 427.78 466.694 430.593C463.88 433.406 462.3 437.222 462.3 441.2V676.8C462.292 680.79 463.867 684.62 466.679 687.451C469.491 690.281 473.31 691.881 477.3 691.9Z" stroke="#B8D8C7" stroke-width="1.8" stroke-linecap="round" stroke-linejoin="round"/>
<path d="M-27.3 629.3H391.8C395.778 629.3 399.594 627.72 402.407 624.907C405.22 622.094 406.8 618.278 406.8 614.3V270C406.8 266.022 405.22 262.206 402.407 259.393C399.594 256.58 395.778 255 391.8 255H-27.3C-31.2783 255 -35.0936 256.58 -37.9066 259.393C-40.7197 262.206 -42.3 266.022 -42.3 270V614.3C-42.3 618.278 -40.7197 622.094 -37.9066 624.907C-35.0936 627.72 -31.2783 629.3 -27.3 629.3Z" stroke="#B8D8C7" stroke-width="1.8" stroke-linecap="round" stroke-linejoin="round"/>
<path d="M135.8 359.9H156.1C157.158 359.903 158.18 359.518 158.972 358.817C159.765 358.117 160.273 357.15 160.4 356.1L162 341.7C162.066 341.096 162.004 340.484 161.818 339.906C161.632 339.327 161.326 338.794 160.921 338.341C160.515 337.888 160.019 337.526 159.464 337.277C158.909 337.029 158.308 336.901 157.7 336.9H134.2C133.593 336.902 132.992 337.032 132.438 337.281C131.884 337.529 131.388 337.892 130.983 338.344C130.578 338.797 130.272 339.329 130.085 339.907C129.899 340.485 129.836 341.096 129.9 341.7L131.5 356.1C131.661 357.136 132.178 358.083 132.964 358.777C133.749 359.471 134.752 359.868 135.8 359.9Z" stroke="#B8D8C7" stroke-width="1.8" stroke-linecap="round" stroke-linejoin="round"/>
<path d="M148.4 336.9C148.4 336.9 156.4 336.1 158 325.3C158 325.3 150.8 327.4 148.5 332.5C148.5 332.5 147.5 321.1 142.1 320C142.1 320 139.7 328.5 143.5 332.7C143.5 332.7 140.6 327.9 133.2 328C133.899 330.106 135.103 332.009 136.707 333.543C138.31 335.077 140.265 336.195 142.4 336.8" fill="#B8D8C7"/>
<path d="M480.5 475.9H570.7C571.812 475.892 572.875 475.447 573.661 474.661C574.447 473.875 574.892 472.811 574.9 471.7V444.3C574.892 443.188 574.447 442.125 573.661 441.339C572.875 440.553 571.812 440.108 570.7 440.1H480.5C479.389 440.108 478.325 440.553 477.539 441.339C476.753 442.125 476.308 443.188 476.3 444.3V471.7C476.286 472.255 476.386 472.808 476.592 473.323C476.798 473.839 477.107 474.308 477.5 474.7C477.892 475.093 478.361 475.402 478.877 475.608C479.393 475.814 479.945 475.914 480.5 475.9Z" stroke="#B8D8C7" stroke-width="1.8" stroke-linecap="round" stroke-linejoin="round"/>
<path d="M515.2 449.8H536C536.395 449.79 536.77 449.629 537.049 449.349C537.329 449.07 537.49 448.695 537.5 448.3C537.49 447.905 537.329 447.53 537.049 447.251C536.77 446.971 536.395 446.81 536 446.8H515.2C514.805 446.81 514.43 446.971 514.151 447.251C513.871 447.53 513.71 447.905 513.7 448.3C513.71 448.695 513.871 449.07 514.151 449.349C514.43 449.629 514.805 449.79 515.2 449.8Z" fill="#B8D8C7"/>
<path d="M480.5 521.7H570.7C571.812 521.692 572.875 521.247 573.661 520.461C574.447 519.675 574.892 518.612 574.9 517.5V490.1C574.892 488.989 574.447 487.925 573.661 487.139C572.875 486.353 571.812 485.908 570.7 485.9H480.5C479.389 485.908 478.325 486.353 477.539 487.139C476.753 487.925 476.308 488.989 476.3 490.1V517.5C476.286 518.055 476.386 518.608 476.592 519.123C476.798 519.639 477.107 520.108 477.5 520.5C477.892 520.893 478.361 521.202 478.877 521.408C479.393 521.615 479.945 521.714 480.5 521.7Z" stroke="#B8D8C7" stroke-width="1.8" stroke-linecap="round" stroke-linejoin="round"/>
<path d="M515.2 495.6H536C536.395 495.59 536.77 495.429 537.049 495.149C537.329 494.87 537.49 494.495 537.5 494.1C537.49 493.705 537.329 493.33 537.049 493.051C536.77 492.771 536.395 492.61 536 492.6H515.2C514.805 492.61 514.43 492.771 514.151 493.051C513.871 493.33 513.71 493.705 513.7 494.1C513.71 494.495 513.871 494.87 514.151 495.149C514.43 495.429 514.805 495.59 515.2 495.6Z" fill="#B8D8C7"/>
<path d="M61.8 507.4H152C153.111 507.392 154.175 506.947 154.961 506.161C155.747 505.375 156.192 504.311 156.2 503.2V475.8C156.192 474.688 155.747 473.625 154.961 472.839C154.175 472.053 153.111 471.608 152 471.6H61.8C60.6885 471.608 59.6248 472.053 58.8388 472.839C58.0529 473.625 57.6079 474.688 57.6 475.8V503.2C57.5863 503.755 57.6855 504.308 57.8918 504.823C58.098 505.339 58.4068 505.808 58.7996 506.2C59.1924 506.593 59.6609 506.902 60.1766 507.108C60.6924 507.314 61.2447 507.414 61.8 507.4Z" stroke="#B8D8C7" stroke-width="1.8" stroke-linecap="round" stroke-linejoin="round"/>
<path d="M96.4999 481.2H117.3C117.695 481.19 118.07 481.029 118.349 480.749C118.629 480.47 118.79 480.095 118.8 479.7C118.79 479.305 118.629 478.93 118.349 478.651C118.07 478.371 117.695 478.21 117.3 478.2H96.4999C96.1053 478.21 95.7296 478.371 95.4505 478.651C95.1714 478.93 95.0101 479.305 94.9999 479.7C94.9959 479.898 95.0319 480.095 95.1058 480.279C95.1797 480.463 95.2901 480.63 95.4302 480.77C95.5703 480.91 95.7373 481.02 95.9211 481.094C96.105 481.168 96.3018 481.204 96.4999 481.2Z" fill="#B8D8C7"/>
<path d="M177.6 507.4H267.8C268.911 507.392 269.975 506.947 270.761 506.161C271.547 505.375 271.992 504.311 272 503.2V475.8C271.992 474.688 271.547 473.625 270.761 472.839C269.975 472.053 268.911 471.608 267.8 471.6H177.6C176.488 471.608 175.425 472.053 174.639 472.839C173.853 473.625 173.408 474.688 173.4 475.8V503.2C173.386 503.755 173.485 504.308 173.692 504.823C173.898 505.339 174.207 505.808 174.6 506.2C174.992 506.593 175.461 506.902 175.977 507.108C176.492 507.314 177.045 507.414 177.6 507.4Z" stroke="#B8D8C7" stroke-width="1.8" stroke-linecap="round" stroke-linejoin="round"/>
<path d="M212.3 481.2H233.1C233.495 481.19 233.87 481.029 234.149 480.749C234.429 480.47 234.59 480.095 234.6 479.7C234.59 479.305 234.429 478.93 234.149 478.651C233.87 478.371 233.495 478.21 233.1 478.2H212.3C211.905 478.21 211.53 478.371 211.251 478.651C210.971 478.93 210.81 479.305 210.8 479.7C210.796 479.898 210.832 480.095 210.906 480.279C210.98 480.463 211.09 480.63 211.23 480.77C211.37 480.91 211.537 481.02 211.721 481.094C211.905 481.168 212.102 481.204 212.3 481.2Z" fill="#B8D8C7"/>
<path d="M595.4 475.9H685.6C686.711 475.892 687.775 475.447 688.561 474.661C689.347 473.875 689.792 472.811 689.8 471.7V444.3C689.792 443.188 689.347 442.125 688.561 441.339C687.775 440.553 686.711 440.108 685.6 440.1H595.4C594.288 440.108 593.225 440.553 592.439 441.339C591.653 442.125 591.208 443.188 591.2 444.3V471.7C591.208 472.811 591.653 473.875 592.439 474.661C593.225 475.447 594.288 475.892 595.4 475.9Z" stroke="#B8D8C7" stroke-width="1.8" stroke-linecap="round" stroke-linejoin="round"/>
<path d="M630.2 449.8H651C651.395 449.79 651.77 449.629 652.049 449.349C652.329 449.07 652.49 448.695 652.5 448.3C652.49 447.905 652.329 447.53 652.049 447.251C651.77 446.971 651.395 446.81 651 446.8H630.2C629.805 446.81 629.43 446.971 629.151 447.251C628.871 447.53 628.71 447.905 628.7 448.3C628.696 448.498 628.732 448.695 628.806 448.879C628.88 449.063 628.99 449.23 629.13 449.37C629.27 449.51 629.437 449.62 629.621 449.694C629.805 449.768 630.002 449.804 630.2 449.8Z" fill="#B8D8C7"/>
<path d="M595.4 521.7H685.6C686.711 521.692 687.775 521.247 688.561 520.461C689.347 519.675 689.792 518.612 689.8 517.5V490.1C689.792 488.989 689.347 487.925 688.561 487.139C687.775 486.353 686.711 485.908 685.6 485.9H595.4C594.288 485.908 593.225 486.353 592.439 487.139C591.653 487.925 591.208 488.989 591.2 490.1V517.5C591.208 518.612 591.653 519.675 592.439 520.461C593.225 521.247 594.288 521.692 595.4 521.7Z" stroke="#B8D8C7" stroke-width="1.8" stroke-linecap="round" stroke-linejoin="round"/>
<path d="M630.2 495.6H651C651.395 495.59 651.77 495.429 652.049 495.149C652.329 494.87 652.49 494.495 652.5 494.1C652.49 493.705 652.329 493.33 652.049 493.051C651.77 492.771 651.395 492.61 651 492.6H630.2C629.805 492.61 629.43 492.771 629.151 493.051C628.871 493.33 628.71 493.705 628.7 494.1C628.696 494.298 628.732 494.495 628.806 494.679C628.88 494.863 628.99 495.03 629.13 495.17C629.27 495.31 629.437 495.42 629.621 495.494C629.805 495.568 630.002 495.604 630.2 495.6Z" fill="#B8D8C7"/>
<path d="M-69.6 359.9H385.4C386.616 359.887 387.778 359.398 388.638 358.538C389.498 357.678 389.987 356.516 390 355.3V275.6C389.987 274.384 389.498 273.222 388.638 272.362C387.778 271.502 386.616 271.013 385.4 271H-69.6C-70.816 271.013 -71.9785 271.502 -72.8383 272.362C-73.6982 273.222 -74.187 274.384 -74.2 275.6V355.3C-74.187 356.516 -73.6982 357.678 -72.8383 358.538C-71.9785 359.398 -70.816 359.887 -69.6 359.9Z" stroke="#B8D8C7" stroke-width="1.8" stroke-linecap="round" stroke-linejoin="round"/>
<path d="M-69.6 458.8H385.4C386.616 458.787 387.778 458.298 388.638 457.438C389.498 456.578 389.987 455.416 390 454.2V374.5C389.987 373.284 389.498 372.122 388.638 371.262C387.778 370.402 386.616 369.913 385.4 369.9H-69.6C-70.816 369.913 -71.9785 370.402 -72.8383 371.262C-73.6982 372.122 -74.187 373.284 -74.2 374.5V454.2C-74.187 455.416 -73.6982 456.578 -72.8383 457.438C-71.9785 458.298 -70.816 458.787 -69.6 458.8Z" stroke="#B8D8C7" stroke-width="1.8" stroke-linecap="round" stroke-linejoin="round"/>
<path d="M359.38 309.6H349.48V359.9H359.38V309.6Z" stroke="#B8D8C7" stroke-width="1.8" stroke-linecap="round" stroke-linejoin="round"/>
<path d="M349.54 323.21H339.24V359.81H349.54V323.21Z" stroke="#B8D8C7" stroke-width="1.8" stroke-linecap="round" stroke-linejoin="round"/>
<path d="M61 408.34H51.1V458.64H61V408.34Z" stroke="#B8D8C7" stroke-width="1.8" stroke-linecap="round" stroke-linejoin="round"/>
<path d="M51.16 422.05H40.86V458.65H51.16V422.05Z" stroke="#B8D8C7" stroke-width="1.8" stroke-linecap="round" stroke-linejoin="round"/>
<path d="M81.19 408.34H71.29V458.64H81.19V408.34Z" stroke="#B8D8C7" stroke-width="1.8" stroke-linecap="round" stroke-linejoin="round"/>
<path d="M90.4637 407.286L81.0229 410.266L96.1652 458.233L105.606 455.253L90.4637 407.286Z" stroke="#B8D8C7" stroke-width="1.8" stroke-linecap="round" stroke-linejoin="round"/>
<path d="M71.34 422.05H61.04V458.65H71.34V422.05Z" stroke="#B8D8C7" stroke-width="1.8" stroke-linecap="round" stroke-linejoin="round"/>
<path d="M194.58 309.6H184.68V359.9H194.58V309.6Z" stroke="#B8D8C7" stroke-width="1.8" stroke-linecap="round" stroke-linejoin="round"/>
<path d="M184.73 323.21H174.43V359.81H184.73V323.21Z" stroke="#B8D8C7" stroke-width="1.8" stroke-linecap="round" stroke-linejoin="round"/>
<path d="M292.3 309.6H282.4V359.9H292.3V309.6Z" stroke="#B8D8C7" stroke-width="1.8" stroke-linecap="round" stroke-linejoin="round"/>
<path d="M301.592 308.478L292.151 311.458L307.294 359.425L316.734 356.445L301.592 308.478Z" stroke="#B8D8C7" stroke-width="1.8" stroke-linecap="round" stroke-linejoin="round"/>
<path d="M282.46 323.21H272.16V359.81H282.46V323.21Z" stroke="#B8D8C7" stroke-width="1.8" stroke-linecap="round" stroke-linejoin="round"/>
<path d="M51.3 316.1L50.2 301.2C50.1786 300.967 50.207 300.732 50.2835 300.51C50.36 300.289 50.4827 300.086 50.6435 299.916C50.8043 299.746 50.9995 299.612 51.2162 299.523C51.4328 299.434 51.6659 299.392 51.9 299.4H60.5C60.7315 299.401 60.9604 299.449 61.1728 299.541C61.3851 299.633 61.5766 299.768 61.7356 299.936C61.8945 300.104 62.0176 300.303 62.0975 300.52C62.1773 300.738 62.2122 300.969 62.2 301.2L61.1 316.1C61.1 316.1 70.1 321.9 70 326.7C69.9 330.4 67.7 348.1 66.7 355.9C66.5727 356.95 66.0646 357.917 65.2721 358.617C64.4796 359.318 63.4576 359.703 62.4 359.7H50C48.9424 359.703 47.9204 359.318 47.1279 358.617C46.3354 357.917 45.8273 356.95 45.7 355.9C44.7 348.1 42.5 330.4 42.4 326.7C42.3 321.9 51.3 316.1 51.3 316.1Z" fill="#B8D8C7"/>
<path d="M712.3 540.6L-244.9 531.1" stroke="#B8D8C7" stroke-width="1.8" stroke-linecap="round" stroke-linejoin="round"/>
</g>
<path d="M359.4 396L339.9 551.8C339.849 552.199 339.883 552.604 340 552.988C340.118 553.373 340.315 553.728 340.58 554.03C340.844 554.333 341.17 554.576 341.536 554.743C341.901 554.91 342.298 554.998 342.7 555C343.378 555.007 344.036 554.767 344.551 554.326C345.066 553.885 345.403 553.271 345.5 552.6L367.8 399.9L359.4 396Z" fill="#B0D7C0"/>
<path d="M420 418.3L439.5 574.1C439.551 574.499 439.517 574.904 439.4 575.288C439.282 575.673 439.085 576.028 438.82 576.33C438.556 576.633 438.23 576.876 437.864 577.043C437.499 577.21 437.102 577.298 436.7 577.3C436.022 577.307 435.364 577.067 434.849 576.626C434.334 576.185 433.997 575.571 433.9 574.9L411.6 422.2L420 418.3Z" fill="#B0D7C0"/>
<path d="M325.4 412.2L299.2 567C299.136 567.398 299.157 567.805 299.262 568.194C299.367 568.583 299.553 568.945 299.808 569.257C300.063 569.569 300.382 569.823 300.742 570.003C301.103 570.183 301.497 570.284 301.9 570.3C302.581 570.335 303.25 570.121 303.784 569.698C304.318 569.274 304.679 568.671 304.8 568L333.7 416.4L325.4 412.2Z" fill="#B0D7C0"/>
<path d="M398.8 396.7L413.2 553C413.238 553.397 413.359 553.781 413.556 554.127C413.752 554.474 414.02 554.775 414.341 555.011C414.662 555.247 415.029 555.412 415.418 555.497C415.807 555.581 416.21 555.582 416.6 555.5C417.253 555.36 417.834 554.99 418.238 554.458C418.642 553.926 418.841 553.267 418.8 552.6L407.9 398.6L398.8 396.7Z" fill="#B0D7C0"/>
<path d="M440.5 257.6C429.6 255.8 393.5 382.2 393.5 382.2H428.2C428.2 382.2 411.2 402.5 410.6 404.4C410 406.3 403.8 432 403.8 432C445.3 418.8 436.1 382.1 436.1 382.1C427.2 354.6 439.6 319.4 444.9 290.3C450.2 261.2 440.5 257.6 440.5 257.6Z" fill="#FFE779"/>
<path d="M311.9 425.3C311.9 425.3 312.8 439 348.5 441C384.2 443 430.2 439.5 436.2 399C436.3 399 319.1 413.9 311.9 425.3Z" fill="#FFE779"/>
<path d="M427.4 379.4C417.7 344 455.2 264.9 440.6 257.5C425.6 250 368 253.1 352.5 266.5C338 279.1 331.4 372.5 330.6 384.3C330.517 384.694 330.484 385.097 330.5 385.5C330.5 392.5 329.5 404.3 324.4 408C314.5 415.2 298.2 426.1 329.4 434.1C329.4 434.1 342.9 437.2 381.4 435.6C433.5 433.4 428.3 401.3 428.2 382.1C428.168 381.147 427.892 380.217 427.4 379.4Z" fill="white"/>
<path d="M288.2 559C288.2 559 292.6 580 293.6 581.7C294.6 583.4 302.1 587.1 312.3 584.1C322.5 581.1 322.8 577.3 322.8 577.3C322.8 577.3 320.8 553.2 320.8 550.5C320.8 547.8 286.5 543 288.2 559Z" fill="#B28D93"/>
<path d="M321.8 565.8C321.3 559.2 320.7 551.9 320.7 550.5C320.7 547.8 286.4 543 288.1 559C288.1 559 288.8 562.2 289.6 566.2C300.161 569.072 311.314 568.933 321.8 565.8Z" fill="#896068"/>
<path d="M292.5 578.1C292.5 578.1 291.3 580 291.3 589.9C291.3 599.8 276.3 622.2 277.3 628.3C278.3 634.4 320.5 635.9 324.3 631.4C328.1 626.9 324.1 593.7 324.4 590.2C324.7 586.7 326 580.1 322.6 575.9C322.6 575.9 319.1 579.4 316.3 580C313.5 580.6 310.9 574.9 305.4 573.9C299.9 572.9 296.3 579.4 295.7 580C295.1 580.6 292.7 579.8 292.5 578.1Z" fill="#22272E"/>
<path d="M294.3 601.5C294.3 601.5 302.8 595.6 316.3 602.3" stroke="white" stroke-width="1.8" stroke-linecap="round" stroke-linejoin="round"/>
<path d="M291 610.9C291 610.9 302.8 602.6 316.4 612.6" stroke="white" stroke-width="1.8" stroke-linecap="round" stroke-linejoin="round"/>
<path d="M396.9 570.4C396.9 570.4 403.7 589.4 407.4 592.8C411.1 596.2 421 596.5 427.8 592.8C434.6 589.1 434.3 583.5 434.3 583.5C434.3 583.5 428.4 552.4 427.1 551.6C425.8 550.8 396.9 561.3 396.9 570.4Z" fill="#B28D93"/>
<path d="M396.9 570.4C396.9 570.4 398.6 575.1 400.7 580.3C412.3 582.3 422.4 578.4 432.2 572.8C430.4 563.7 427.9 552.1 427.1 551.6C425.7 550.7 396.9 561.3 396.9 570.4Z" fill="#896068"/>
<path d="M404.3 587.5C404.3 587.5 403.4 587.8 406 596.2C407.3 600.7 392.9 623.8 393.2 629.5C393.5 635.2 405.5 636.2 415 636.5C429.5 636.9 439 634 439.8 624.7C440.6 615.4 438.1 597.3 438.1 593.3C438.1 589.3 436.8 584.7 433.5 579.3C433.5 579.3 433.8 586.8 430.8 588.2C427.8 589.6 422.2 584.2 417.9 585.3C413.6 586.4 411.8 589.7 410 591.6C408.2 593.5 404.8 588.6 404.3 587.5Z" fill="#22272E"/>
<path d="M408.7 606.9C408.7 606.9 416.5 599.1 430.2 605.1" stroke="white" stroke-width="1.8" stroke-linecap="round" stroke-linejoin="round"/>
<path d="M404.4 615.8C404.4 615.8 416.7 605.6 430.1 615" stroke="white" stroke-width="1.8" stroke-linecap="round" stroke-linejoin="round"/>
<path d="M326.7 380.1C326.7 380.1 280.8 405.4 268.7 428.6C256.6 451.8 275.5 525.7 275.2 541.3C274.9 556.9 276.9 559.2 285.6 562.5C294.3 565.8 313.2 565.1 321.1 559.2C331.3 551.6 326.6 537.7 324.3 520.9C322 504.1 320.9 454.5 320.9 454.5C320.9 454.5 342.5 437 353.1 431.8C355.136 430.817 357.344 430.24 359.6 430.1C360.352 430.052 361.105 430.186 361.795 430.491C362.485 430.795 363.091 431.262 363.562 431.851C364.033 432.439 364.355 433.133 364.501 433.873C364.647 434.612 364.612 435.376 364.4 436.1C361.8 445.3 358.1 468.4 359.6 479C361 488.9 367.9 513.4 381.4 554.9C384.1 563.1 385 569.7 388.3 572.5C402.2 584.2 432.4 571.7 435.6 560.8C436.9 556.3 433.6 541 429.3 524.3C423.2 500.4 415 473.6 415.6 470.7C416.6 465.8 429.5 420.8 426.1 400.6C417.9 351.7 380 371.4 326.7 380.1Z" fill="#22272E"/>
<path d="M283.1 459.2C291.44 459.2 298.2 451.813 298.2 442.7C298.2 433.587 291.44 426.2 283.1 426.2C274.761 426.2 268 433.587 268 442.7C268 451.813 274.761 459.2 283.1 459.2Z" stroke="#63737A" stroke-width="1.8" stroke-linecap="round" stroke-linejoin="round"/>
<path d="M383.209 495.616C391.745 494.443 397.652 486.128 396.403 477.046C395.154 467.964 387.222 461.552 378.686 462.726C370.151 463.9 364.244 472.214 365.493 481.296C366.742 490.379 374.674 496.79 383.209 495.616Z" stroke="#63737A" stroke-width="1.8" stroke-linecap="round" stroke-linejoin="round"/>
<path d="M320.9 454.5C320.9 454.5 320.3 448.3 318.4 445" stroke="#63737A" stroke-width="1.8" stroke-linecap="round" stroke-linejoin="round"/>
<path d="M360.9 429.8C360.9 429.8 362 422.9 360.2 420.9" stroke="#63737A" stroke-width="1.8" stroke-linecap="round" stroke-linejoin="round"/>
<path d="M348.5 421.7C348.5 421.7 355.9 421.1 371.9 421.7" stroke="#63737A" stroke-width="1.8" stroke-linecap="round" stroke-linejoin="round"/>
<path d="M332.6 278.4C332.6 278.4 326.8 280.5 317.8 294.1C312.867 301.622 307.35 308.744 301.3 315.4C301.3 315.4 291 304.1 280.2 296.9C269.4 289.7 257.1 278.4 257.1 278.4C257.1 278.4 249 274 243.9 280C238.8 286 241.4 294.7 241.4 294.7C241.4 294.7 253.5 311.1 271.3 332.5C282.9 346.5 294.7 356.5 304.6 353.4C317.8 349.3 343.8 325.7 348.3 316.3C352.8 306.9 349.4 275 332.6 278.4Z" fill="#6DAFA7"/>
<path d="M301.2 315.4C303.517 318.374 305.309 321.722 306.5 325.3" stroke="#22272E" stroke-width="1.8" stroke-linecap="round" stroke-linejoin="round"/>
<path d="M257.5 278.9C257.5 278.9 249.5 272.3 243.8 272.9C236.4 273.7 236.5 272 231.8 273C229.6 273.5 225.6 275.1 221.4 280.3C219.303 282.785 217.397 285.426 215.7 288.2C215.7 288.2 211.3 278.8 208.6 280.3C205.9 281.8 212.3 296.2 214.5 297.7C216.7 299.2 223.2 296.6 225.5 297.7C227.8 298.8 234 296.8 234 296.8L242.5 294.7L244.7 297.1C245.049 297.475 245.499 297.74 245.996 297.865C246.493 297.989 247.016 297.966 247.5 297.8C250.901 296.418 253.627 293.763 255.1 290.4C258.6 283.1 257.5 278.9 257.5 278.9Z" fill="#B28D93"/>
<path d="M215.7 288.2C215.7 288.2 211.3 278.8 208.6 280.3C205.9 281.8 212.3 296.2 214.5 297.7C216.7 299.2 223.2 296.6 225.5 297.7" stroke="#89555F" stroke-width="1.8" stroke-linecap="round" stroke-linejoin="round"/>
<path d="M247.2 285.3C247.2 285.3 244.3 292.9 240.7 297.8C237.1 302.7 231.7 302.9 229.3 301.3C226.9 299.7 230.1 288.7 230.8 286C231.5 283.3 233.7 280.8 235.1 283.8C236.2 286.1 234.6 291.6 234.9 296" fill="#B28D93"/>
<path d="M230.6 300.4C230.6 300.4 227.5 302.3 225.7 301.7C223.9 301.1 222.8 299.8 222.5 297.1C222.2 294.4 223.2 286.3 223.1 284.2C223 282.1 226.3 280.4 227.7 285.2C229.1 290 228.4 294.2 229.3 295.2" fill="#B28D93"/>
<path d="M223.8 299C222.326 299.735 220.736 300.208 219.1 300.4C216.7 300.6 215.6 299 214.8 294.1C213.9 288.2 213.2 282.2 215.3 281.9C217.4 281.6 218.5 284.8 219.3 288.1C220.1 291.4 220.6 293.5 221.1 293.6" fill="#B28D93"/>
<path d="M232.8 272.9C232.8 272.9 227.1 273.3 225 273.3C222.9 273.3 217.4 271.9 216.2 273.6C215 275.3 218.4 278.4 224.5 279.2C230.6 280 236.5 275.2 232.8 272.9Z" fill="#B28D93"/>
<path d="M247.2 302.4C247.2 302.4 255.1 305 260.6 297.1C265.5 290.1 263.6 284.1 263.6 284.1" stroke="#22272E" stroke-width="1.8" stroke-linecap="round" stroke-linejoin="round"/>
<path d="M288.6 349.4C288.6 349.4 286.7 347.1 291.6 345.7C296.5 344.3 315.6 343.5 313.3 349" stroke="#22272E" stroke-width="1.8" stroke-linecap="round" stroke-linejoin="round"/>
<path d="M247.2 285.3C247.2 285.3 244.3 292.9 240.7 297.8C237.1 302.7 231.7 302.9 229.3 301.3C226.9 299.7 230.1 288.7 230.8 286C231.5 283.3 233.7 280.8 235.1 283.8C236.2 286.1 234.6 291.6 234.9 296" stroke="#89555F" stroke-width="1.8" stroke-linecap="round" stroke-linejoin="round"/>
<path d="M228.7 301.3C227.774 301.768 226.716 301.909 225.7 301.7C223.9 301.1 222.8 299.8 222.5 297.1C222.2 294.4 223.2 286.3 223.1 284.2C223 282.1 226.3 280.4 227.7 285.2C228.7 288.8 228.6 291.9 228.9 293.8" stroke="#89555F" stroke-width="1.8" stroke-linecap="round" stroke-linejoin="round"/>
<path d="M223 299.3C221.768 299.858 220.448 300.197 219.1 300.3C216.7 300.5 215.6 298.9 214.8 294C213.9 288.1 213.2 282.1 215.3 281.8C217.4 281.5 218.5 284.7 219.3 288C220.1 291.3 220.6 293.4 221.1 293.5" stroke="#89555F" stroke-width="1.8" stroke-linecap="round" stroke-linejoin="round"/>
<path d="M222.7 279C224.398 277.302 226.276 275.793 228.3 274.5" stroke="#89555F" stroke-width="1.8" stroke-linecap="round" stroke-linejoin="round"/>
<path d="M343.6 225.1C343.5 223.294 343.601 221.483 343.9 219.7C344.7 215.5 346.8 206.7 350.3 203.8C355.5 199.5 358.3 205.9 358.3 205.9C358.3 205.9 361.9 201.2 365.3 201.7C368.7 202.2 370.5 206.2 370.5 206.2C370.5 206.2 376 201.7 379.3 203.9C381.307 205.223 382.791 207.203 383.5 209.5C383.5 209.5 387 205.5 390.7 207.1C394.4 208.7 395.1 218.2 395.1 218.2C395.1 218.2 398.8 220.3 399.6 227.6C400.5 235.4 396.7 246.9 388.9 260.1C388.9 260.1 372.8 231.1 362.6 227C352.4 222.9 352.5 230.5 349.3 230.7C346.5 230.8 344.1 230.5 343.6 225.1Z" fill="#22272E"/>
<path d="M345.6 279.2C345.6 279.2 333.1 280.7 347.7 267.5C360.3 256.1 402.3 259.3 407.7 269.1C411.7 276.4 416.8 295.9 399.8 307.6C382.8 319.3 353.2 306.9 345.6 279.2Z" fill="#6DAFA7"/>
<path d="M369.6 275.5C369.6 275.5 381.3 275 391.1 274.6C400.9 274.2 415.2 274.4 423.1 285.2C432.2 297.5 418.5 339.9 416.5 350.7C414.5 361.5 422.2 374.5 421.8 383.4C421.6 388.5 415.2 401.9 386.8 404.4C354.7 407.3 326.4 400.7 323.3 382.2C321.2 369.8 329.4 361.1 326.6 340.9C325.1 330.3 323.2 296 326.8 286.3C330.4 276.6 336.4 273.4 369.6 275.5Z" fill="#FFE779"/>
<path d="M357.6 265.7C357.6 265.7 356.2 276.8 355.6 279.7C355 282.6 356.6 290.8 368.2 290.7C380.7 290.6 388.5 280.6 388.8 276.6C389.1 272.6 388.1 253.3 389.8 246.9C391.5 240.5 375.5 244.2 368.6 248.2C361.7 252.2 356.9 262.4 357.6 265.7Z" fill="#B28D93"/>
<path d="M378.3 264.8C371.8 266.3 363.8 271.9 356.9 270.8C356.7 272.5 356.4 274.3 356.2 275.9C365.4 277.4 374.1 271.6 378.3 264.8Z" fill="#896068"/>
<path d="M356.6 273.2C356.6 273.2 355 284.7 364.7 290.4C364.7 290.4 375.9 289.4 384.1 281.4C385.613 279.895 386.809 278.102 387.616 276.127C388.424 274.151 388.826 272.034 388.8 269.9V269C388.8 269 404.5 269.2 409 273.9C417.6 282.9 382.3 297.2 363.1 300.2C363.1 300.2 345.3 290.3 341.1 280.2C336.9 270.1 355.2 273.6 356.6 273.2Z" fill="#6DAFA7"/>
<path d="M359.8 293.9C356.774 303.418 354.829 313.247 354 323.2" stroke="#22272E" stroke-width="1.8" stroke-linecap="round" stroke-linejoin="round"/>
<path d="M356.3 324.4C356.4 323.1 355.7 319.1 354.4 319C353.1 318.9 351.6 322.7 351.5 324C351.455 324.635 351.66 325.262 352.071 325.747C352.482 326.233 353.067 326.539 353.7 326.6C354.018 326.64 354.34 326.614 354.648 326.523C354.955 326.433 355.239 326.279 355.484 326.072C355.728 325.865 355.927 325.61 356.068 325.322C356.208 325.034 356.287 324.72 356.3 324.4Z" fill="#6DAFA7"/>
<path d="M371.5 294.2C370.728 304.143 371.097 314.141 372.6 324" stroke="#22272E" stroke-width="1.8" stroke-linecap="round" stroke-linejoin="round"/>
<path d="M375.2 324.8C375 323.5 373.4 319.8 372.1 320C370.8 320.2 370.2 324.2 370.4 325.5C370.497 326.148 370.845 326.732 371.369 327.125C371.893 327.518 372.551 327.689 373.2 327.6C373.825 327.472 374.378 327.112 374.749 326.592C375.12 326.073 375.281 325.433 375.2 324.8Z" fill="#6DAFA7"/>
<path d="M335 369.8C338.225 364.598 340.305 358.769 341.1 352.7C341.194 351.759 341.657 350.893 342.388 350.293C343.119 349.693 344.059 349.408 345 349.5C352.4 350.3 368.9 351.8 381.3 350.7C381.773 350.658 382.25 350.71 382.703 350.853C383.157 350.996 383.577 351.228 383.94 351.535C384.302 351.842 384.601 352.218 384.817 352.641C385.033 353.064 385.164 353.526 385.2 354C385.6 358.3 387.5 365.6 394.9 372.7C395.509 373.202 395.902 373.917 396 374.7C396.965 379.606 397.401 384.601 397.3 389.6C396.9 396.5 350.5 401.2 334.5 387C334.117 386.642 333.812 386.208 333.605 385.726C333.399 385.244 333.295 384.724 333.3 384.2C333.4 381.5 333.8 375.9 334.5 371.3C334.574 370.774 334.744 370.265 335 369.8Z" fill="#6DAFA7"/>
<path d="M344.5 229.8C344.5 229.8 344.3 239.6 343.4 248C342.5 256.4 343.4 267.6 356.9 271.1C370.4 274.6 383.5 264.4 388.4 251C393.3 237.6 393.5 219.5 376.3 212.4C359.1 205.3 345.3 214.2 344.5 229.8Z" fill="#B28D93"/>
<path d="M394.8 238.4C393.5 244.7 392.6 248.1 392.6 248.1L388.4 243.7C388.4 243.7 381.2 242.7 380.2 229.8C380.126 228.715 379.775 227.666 379.179 226.756C378.584 225.845 377.765 225.103 376.8 224.6C370.9 221.5 367.8 226.1 356.3 225.3C352.4 225 346.4 224.4 346.6 218.4C347.1 202.8 371.2 204 382.6 211.1C394 218.2 396.1 232.2 394.8 238.4Z" fill="#22272E"/>
<path d="M383.6 244.6C383.6 244.6 386.2 238.7 390.5 239.3C395.1 239.9 395.5 253.7 383.6 254.5" fill="#B28D93"/>
<path d="M350.8 236.9C350.982 238.259 351.015 239.634 350.9 241C350.837 242.399 350.567 243.78 350.1 245.1C350 245.4 349.8 245.8 349.7 246.1C349.6 246.4 349.5 246.6 349.4 246.9C349.279 247.332 349.314 247.792 349.5 248.2C350.183 249.226 351.212 249.971 352.4 250.3C351.68 250.5 350.92 250.5 350.2 250.3C349.408 250.1 348.704 249.643 348.2 249C347.903 248.656 347.697 248.244 347.6 247.8C347.5 247.372 347.5 246.928 347.6 246.5C347.701 246.122 347.834 245.754 348 245.4C348.113 245.124 348.247 244.856 348.4 244.6C349.4 242.1 349.9 239.5 350.8 236.9Z" fill="#22272E"/>
<path d="M356.4 258.5C356.4 258.5 357.1 257 358.8 258.3C360.5 259.6 361.2 259.1 362.1 258C363 256.9 363.4 259 365.4 258.2" stroke="#22272E" stroke-width="1.8" stroke-linecap="round" stroke-linejoin="round"/>
<path d="M365 234.4C364.832 234.068 364.735 233.705 364.715 233.333C364.695 232.961 364.753 232.59 364.885 232.242C365.016 231.893 365.219 231.577 365.48 231.311C365.741 231.046 366.054 230.838 366.4 230.7C368.4 229.8 371.7 231.3 373.6 233.3C375.5 235.3 374.5 236.3 372.2 235.3C369.9 234.3 368.9 234.1 366.9 234.8C366.584 234.956 366.225 235.002 365.881 234.929C365.536 234.856 365.226 234.67 365 234.4Z" fill="#22272E"/>
<path d="M350.8 233.4C351.108 232.843 351.206 232.194 351.078 231.571C350.95 230.947 350.603 230.39 350.1 230C348.7 229 346.4 230 345.2 231.6C344.1 233 344.6 233.8 346.1 233.4C347.6 233 348.2 232.8 349.5 233.6C349.704 233.729 349.948 233.781 350.187 233.744C350.426 233.707 350.644 233.585 350.8 233.4Z" fill="#22272E"/>
<path d="M390.8 244.8C390.463 244.596 390.089 244.46 389.7 244.4C389.595 244.385 389.488 244.406 389.396 244.461C389.305 244.515 389.236 244.6 389.2 244.7C388.941 245.3 388.805 245.946 388.8 246.6C388.77 247.541 388.531 248.463 388.1 249.3C387.956 249.53 387.766 249.729 387.543 249.884C387.319 250.039 387.066 250.146 386.8 250.2C386.576 250.282 386.338 250.316 386.1 250.3C385.9 250.3 385.6 250.2 385.4 250.2C386.2 249.7 386.8 249.2 386.8 248.7C386.8 248.2 386.9 247.4 387 246.5C387.03 245.477 387.461 244.508 388.2 243.8C388.446 243.568 388.763 243.427 389.1 243.4C389.411 243.396 389.72 243.464 390 243.6C390.367 243.923 390.643 244.337 390.8 244.8Z" fill="#22272E"/>
<path d="M348.2 242.1C348.392 242.128 348.587 242.116 348.774 242.065C348.961 242.013 349.135 241.924 349.285 241.801C349.436 241.679 349.559 241.527 349.648 241.355C349.736 241.182 349.788 240.993 349.8 240.8L349.9 239.9C349.928 239.708 349.916 239.513 349.865 239.326C349.813 239.139 349.723 238.965 349.601 238.815C349.479 238.664 349.327 238.541 349.155 238.452C348.982 238.364 348.793 238.312 348.6 238.3C348.408 238.272 348.213 238.284 348.026 238.335C347.839 238.387 347.665 238.477 347.515 238.599C347.364 238.721 347.241 238.873 347.152 239.045C347.064 239.218 347.012 239.407 347 239.6L346.9 240.5C346.869 240.692 346.879 240.889 346.929 241.077C346.979 241.265 347.068 241.441 347.191 241.592C347.314 241.743 347.467 241.866 347.641 241.954C347.815 242.041 348.005 242.091 348.2 242.1Z" fill="#22272E"/>
<path d="M366.1 243.8C366.292 243.828 366.487 243.816 366.674 243.765C366.861 243.713 367.035 243.623 367.185 243.501C367.336 243.379 367.459 243.227 367.548 243.055C367.636 242.882 367.688 242.693 367.7 242.5L367.8 241.6C367.828 241.408 367.816 241.213 367.765 241.026C367.713 240.839 367.623 240.665 367.501 240.515C367.379 240.364 367.227 240.241 367.055 240.152C366.882 240.064 366.693 240.012 366.5 240C366.308 239.972 366.113 239.984 365.926 240.035C365.739 240.087 365.565 240.176 365.415 240.299C365.264 240.421 365.141 240.573 365.052 240.745C364.964 240.918 364.912 241.107 364.9 241.3L364.8 242.2C364.776 242.581 364.896 242.958 365.137 243.254C365.378 243.551 365.722 243.745 366.1 243.8Z" fill="#22272E"/>
<path d="M417.7 282.9C418.848 282.882 419.988 283.094 421.052 283.524C422.117 283.953 423.085 284.591 423.9 285.4C425.9 287.3 430.1 291.3 438.3 299C451.5 311.5 453.3 313.9 453.3 313.9C453.3 313.9 464.9 323 466.1 334.3C467.3 345.6 459.7 360.8 439.9 348.1C420.1 335.4 410.5 326.9 406.5 318.3C402.9 310.6 405 283.2 417.7 282.9Z" fill="#6DAFA7"/>
<path d="M447.4 324.8C451.09 317.183 456.139 310.303 462.3 304.5C472.7 294.6 485 282.4 487.3 280C489.6 277.6 495.2 272.1 502.8 278C510.4 283.9 506 294.2 506 294.2C506 294.2 492.7 315.6 481.7 333.8C470.7 352 459.5 358 445.3 351.1C431.1 344.2 447.4 324.8 447.4 324.8Z" fill="#6DAFA7"/>
<path d="M487.3 281.5C487.3 281.5 493 273.8 495.3 271.1C497.6 268.4 501.8 264.3 507.3 265.9C512.8 267.5 515.7 264.1 519.9 268.5C524.1 272.9 527 281 529.7 284C532.4 287 531.7 287.8 536 287.7C540.3 287.6 543.8 288.6 542 291C540.2 293.4 528.5 294 526.9 293.8C525.3 293.6 517.8 294.6 515.9 293.7C514 292.8 514.3 293.6 512.7 292.7C511.1 291.8 507 289.8 507 289.8C506.187 291.386 505.179 292.864 504 294.2C502.3 296 494.9 295.7 490.1 290.1C486 285.3 487.3 281.5 487.3 281.5Z" fill="#B28D93"/>
<path d="M529.7 284.1C532.4 287.1 531.7 287.9 536 287.8C540.3 287.7 543.8 288.7 542 291.1C540.2 293.5 528.5 294.1 526.9 293.9" stroke="#89555F" stroke-width="1.8" stroke-linecap="round" stroke-linejoin="round"/>
<path d="M513.1 290.6C513.3 285.3 515 281.1 516.6 281.7C518.2 282.3 519.1 293.6 515.3 296.2C511.5 298.8 501.3 284.8 499.3 283.9" fill="#B28D93"/>
<path d="M514.8 295.3C514.8 295.3 516.9 299.4 520 297.4C523.1 295.4 526.2 286.2 526.8 284.2C527.4 282.2 523.6 281.4 521.1 286.3C518.6 291.2 516.8 291.9 516.8 291.9" fill="#B28D93"/>
<path d="M520.8 295.7C521.25 296.451 521.934 297.034 522.746 297.359C523.559 297.684 524.456 297.734 525.3 297.5C528.4 296.7 532.4 290.5 534.3 288.5C536.2 286.5 533.8 283.9 530.5 286.3C527.2 288.7 524.8 291 523.2 291.5" fill="#B28D93"/>
<path d="M518.5 267.4C518.5 267.4 520.9 268.6 524 272.8C527.1 277 533.1 277.6 533.8 279.8C534.5 282 528.2 282.9 523.2 280.5C518.2 278.1 516.3 267.9 518.5 267.4Z" fill="#B28D93"/>
<path d="M481 286.3C480.663 288.581 480.919 290.911 481.742 293.064C482.565 295.218 483.928 297.125 485.7 298.6C487.737 300.546 490.292 301.864 493.058 302.396C495.825 302.928 498.686 302.652 501.3 301.6" stroke="#22272E" stroke-width="1.8" stroke-linecap="round" stroke-linejoin="round"/>
<path d="M445.2 351C445.2 351 442.9 347.6 450.5 345.9C458.1 344.2 471 343.3 469.7 348.5" stroke="#22272E" stroke-width="1.8" stroke-linecap="round" stroke-linejoin="round"/>
<path d="M513.1 290.6C513.3 285.3 515 281.1 516.6 281.7C518.2 282.3 519.1 293.6 515.3 296.2C511.5 298.8 501.3 284.8 499.3 283.9" stroke="#89555F" stroke-width="1.8" stroke-linecap="round" stroke-linejoin="round"/>
<path d="M520 297.4C523.1 295.5 526.2 286.2 526.8 284.2C527.4 282.2 523.6 281.4 521.1 286.3C520.27 288.154 519.119 289.846 517.7 291.3" stroke="#89555F" stroke-width="1.8" stroke-linecap="round" stroke-linejoin="round"/>
<path d="M521.6 296.6C522.094 297.044 522.695 297.352 523.344 297.492C523.993 297.632 524.667 297.601 525.3 297.4C528.4 296.6 532.4 290.4 534.3 288.4C536.2 286.4 533.8 283.8 530.5 286.2C527.9 288 525.9 289.9 524.4 290.8" stroke="#89555F" stroke-width="1.8" stroke-linecap="round" stroke-linejoin="round"/>
<path d="M528.2 281.9C528.2 281.9 525.5 277.3 524.5 276" stroke="#89555F" stroke-width="1.8" stroke-linecap="round" stroke-linejoin="round"/>
<path d="M453.8 314.2C453.8 314.2 448.2 320.7 447 328.5" stroke="#22272E" stroke-width="1.8" stroke-linecap="round" stroke-linejoin="round"/>
<path d="M147.4 343.4H112.8C112.112 343.362 111.454 343.11 110.916 342.68C110.378 342.25 109.988 341.662 109.8 341L104.8 320.3C104.712 320.012 104.695 319.707 104.751 319.411C104.807 319.115 104.934 318.838 105.12 318.601C105.307 318.365 105.549 318.178 105.824 318.056C106.099 317.934 106.4 317.88 106.7 317.9H141.3C141.988 317.938 142.646 318.19 143.184 318.62C143.722 319.05 144.112 319.638 144.3 320.3L149.3 341C149.388 341.288 149.405 341.593 149.349 341.889C149.293 342.185 149.167 342.462 148.98 342.698C148.793 342.934 148.551 343.122 148.276 343.244C148.001 343.366 147.7 343.42 147.4 343.4Z" fill="#6DAFA7"/>
<path d="M105.3 318.4L124.9 329.4C125.456 329.792 126.12 330.002 126.8 330.002C127.48 330.002 128.144 329.792 128.7 329.4L143 318.4" stroke="#22272E" stroke-width="1.8" stroke-linecap="round" stroke-linejoin="round"/>
<path d="M621.6 345.3L542.8 340.6C542.355 340.576 541.922 340.45 541.534 340.232C541.146 340.014 540.813 339.709 540.562 339.342C540.311 338.974 540.147 338.554 540.084 338.113C540.022 337.672 540.061 337.223 540.2 336.8L562.2 266.9C562.495 266.015 563.039 265.233 563.766 264.648C564.493 264.063 565.372 263.699 566.3 263.6L648.5 257.6C648.978 257.559 649.459 257.638 649.899 257.828C650.339 258.019 650.726 258.316 651.023 258.693C651.32 259.069 651.519 259.514 651.603 259.986C651.686 260.459 651.651 260.944 651.5 261.4L626.3 342C626.02 343.009 625.399 343.89 624.541 344.492C623.684 345.094 622.644 345.38 621.6 345.3Z" fill="#63737A"/>
<path d="M618.7 343.5L539.9 338.8C539.455 338.776 539.022 338.65 538.634 338.432C538.246 338.214 537.914 337.909 537.662 337.542C537.411 337.174 537.247 336.754 537.185 336.313C537.122 335.872 537.161 335.423 537.3 335L559.3 265.1C559.596 264.215 560.139 263.433 560.866 262.848C561.593 262.263 562.472 261.899 563.4 261.8L645.6 255.8C646.078 255.759 646.559 255.838 646.999 256.028C647.439 256.219 647.826 256.516 648.123 256.893C648.42 257.269 648.619 257.714 648.703 258.186C648.786 258.659 648.751 259.144 648.6 259.6L623.4 340.2C623.12 341.209 622.499 342.09 621.641 342.692C620.784 343.294 619.745 343.58 618.7 343.5Z" fill="#22272E"/>
<path d="M578.3 275.3L564.4 276C564.289 276.005 564.178 275.983 564.076 275.936C563.975 275.889 563.887 275.818 563.818 275.73C563.75 275.642 563.703 275.539 563.683 275.43C563.662 275.32 563.668 275.207 563.7 275.1L564.7 271.9C564.777 271.669 564.925 271.467 565.122 271.324C565.319 271.18 565.556 271.102 565.8 271.1L579.8 270.3C579.911 270.295 580.022 270.317 580.124 270.364C580.225 270.411 580.313 270.482 580.382 270.57C580.45 270.658 580.497 270.761 580.517 270.87C580.538 270.98 580.532 271.093 580.5 271.2L579.4 274.5C579.29 274.708 579.133 274.888 578.942 275.027C578.752 275.166 578.532 275.259 578.3 275.3Z" fill="#FFE779"/>
<path d="M549.3 329.6C548.969 329.584 548.646 329.494 548.355 329.336C548.064 329.177 547.813 328.955 547.621 328.685C547.428 328.416 547.299 328.106 547.244 327.78C547.188 327.453 547.207 327.118 547.3 326.8L553.9 306C554.033 305.571 554.298 305.195 554.657 304.926C555.016 304.656 555.451 304.507 555.9 304.5C556.237 304.499 556.569 304.579 556.869 304.732C557.169 304.886 557.427 305.109 557.623 305.384C557.819 305.658 557.946 305.975 557.994 306.308C558.043 306.642 558.01 306.982 557.9 307.3L551.3 328.1C551.226 328.56 550.976 328.974 550.603 329.254C550.23 329.534 549.763 329.658 549.3 329.6Z" fill="#FFE779"/>
<path d="M559.2 330C558.857 329.991 558.52 329.901 558.219 329.737C557.917 329.574 557.658 329.341 557.463 329.058C557.268 328.776 557.142 328.451 557.097 328.111C557.051 327.77 557.086 327.424 557.2 327.1L567.8 293.4C567.954 292.957 568.236 292.568 568.609 292.284C568.982 291.999 569.432 291.831 569.9 291.8C570.253 291.799 570.601 291.88 570.917 292.037C571.234 292.193 571.509 292.421 571.722 292.702C571.936 292.983 572.081 293.31 572.146 293.657C572.212 294.003 572.196 294.36 572.1 294.7L561.5 328.4C561.359 328.89 561.053 329.317 560.634 329.609C560.215 329.9 559.709 330.038 559.2 330Z" fill="#63737A"/>
<path d="M569.4 330.5C569.049 330.478 568.707 330.378 568.4 330.206C568.093 330.034 567.828 329.795 567.627 329.506C567.425 329.218 567.291 328.888 567.234 328.54C567.177 328.193 567.2 327.837 567.3 327.5L571.7 313.6C571.842 313.13 572.133 312.719 572.531 312.43C572.928 312.141 573.409 311.99 573.9 312C574.258 312.011 574.61 312.103 574.927 312.27C575.245 312.437 575.52 312.674 575.732 312.963C575.944 313.252 576.087 313.586 576.151 313.939C576.215 314.292 576.197 314.655 576.1 315L571.7 328.9C571.536 329.377 571.225 329.789 570.812 330.076C570.398 330.364 569.904 330.512 569.4 330.5Z" fill="#FFE779"/>
<path d="M580 330.9C579.635 330.88 579.28 330.778 578.96 330.601C578.64 330.424 578.364 330.178 578.153 329.88C577.942 329.582 577.8 329.241 577.739 328.88C577.678 328.52 577.699 328.151 577.8 327.8L590.3 288C590.454 287.529 590.746 287.114 591.138 286.811C591.53 286.508 592.005 286.33 592.5 286.3C592.877 286.295 593.25 286.38 593.587 286.547C593.925 286.714 594.218 286.959 594.443 287.262C594.667 287.564 594.817 287.916 594.879 288.288C594.941 288.66 594.914 289.041 594.8 289.4L582.3 329.2C582.177 329.708 581.879 330.157 581.458 330.467C581.038 330.778 580.522 330.931 580 330.9Z" fill="#6DAFA7"/>
<path d="M590.9 331.4C590.526 331.371 590.163 331.26 589.836 331.076C589.509 330.892 589.226 330.638 589.007 330.334C588.788 330.029 588.639 329.68 588.568 329.312C588.498 328.943 588.509 328.564 588.6 328.2L596.8 302C596.958 301.512 597.265 301.086 597.678 300.781C598.09 300.477 598.587 300.308 599.1 300.3C599.49 300.294 599.876 300.38 600.227 300.551C600.577 300.723 600.882 300.975 601.117 301.288C601.351 301.6 601.508 301.963 601.574 302.348C601.641 302.732 601.615 303.127 601.5 303.5L593.3 329.7C593.132 330.202 592.809 330.637 592.378 330.942C591.946 331.248 591.429 331.408 590.9 331.4Z" fill="#63737A"/>
<path d="M602.3 331.9C601.91 331.885 601.53 331.78 601.188 331.593C600.845 331.406 600.551 331.143 600.328 330.823C600.105 330.503 599.96 330.136 599.903 329.75C599.846 329.364 599.879 328.971 600 328.6L601.7 323C601.868 322.471 602.202 322.01 602.652 321.686C603.102 321.362 603.645 321.191 604.2 321.2C604.596 321.206 604.985 321.304 605.337 321.486C605.688 321.668 605.992 321.93 606.225 322.25C606.458 322.57 606.613 322.94 606.678 323.331C606.743 323.721 606.717 324.122 606.6 324.5L604.9 330.1C604.699 330.627 604.342 331.081 603.878 331.402C603.415 331.723 602.864 331.897 602.3 331.9Z" fill="#F4C2C9"/>
<path d="M614 332.4C613.602 332.375 613.214 332.261 612.865 332.066C612.516 331.872 612.216 331.601 611.986 331.275C611.755 330.949 611.601 330.575 611.534 330.181C611.468 329.788 611.49 329.384 611.6 329L620.1 302C620.263 301.46 620.592 300.985 621.041 300.644C621.49 300.302 622.036 300.112 622.6 300.1C623.016 300.095 623.427 300.187 623.8 300.369C624.174 300.551 624.5 300.818 624.753 301.148C625.005 301.478 625.177 301.863 625.255 302.271C625.332 302.679 625.314 303.1 625.2 303.5L616.7 330.5C616.511 331.063 616.147 331.551 615.661 331.892C615.176 332.234 614.594 332.412 614 332.4Z" fill="#FFE779"/>
<path d="M625.2 270.3C625.4 269.6 625.1 269 624.6 269C624.1 269 623.4 269.6 623.1 270.4C622.8 271.2 623.2 271.7 623.7 271.7C624.049 271.614 624.37 271.441 624.633 271.196C624.895 270.951 625.091 270.642 625.2 270.3Z" fill="#63737A"/>
<path d="M630.4 270C630.6 269.3 630.3 268.7 629.7 268.7C629.344 268.769 629.014 268.937 628.749 269.184C628.483 269.432 628.293 269.749 628.2 270.1C628 270.8 628.3 271.4 628.9 271.4C629.249 271.314 629.57 271.141 629.833 270.896C630.095 270.651 630.291 270.342 630.4 270Z" fill="#63737A"/>
<path d="M635.7 269.7C635.9 269 635.6 268.4 635 268.4C634.644 268.469 634.314 268.637 634.048 268.884C633.783 269.132 633.593 269.449 633.5 269.8C633.3 270.5 633.6 271.1 634.2 271.1C634.556 271.031 634.886 270.864 635.151 270.616C635.417 270.368 635.607 270.051 635.7 269.7Z" fill="#63737A"/>
<path d="M324.4 193.7C324.4 193.7 317.2 194 315.4 187.4C313.6 180.8 320.4 177.8 320.4 184C320.4 190.2 310.7 192.9 306.7 187.7C302.7 182.5 307.4 178.5 308.7 181.5C310 184.5 306.9 190.8 301.2 188.9" stroke="#6DAFA7" stroke-width="1.8" stroke-linecap="round" stroke-linejoin="round"/>
<path d="M410.4 204C410.4 204 422.7 203.3 421.9 194.4C421.1 185.5 413.1 202 423.8 201.8C434.5 201.6 433.9 191.5 430.7 190.8C427.5 190.1 428.3 197.9 434.2 197.4C440.1 196.9 441 193.3 441 193.3" stroke="#6DAFA7" stroke-width="1.8" stroke-linecap="round" stroke-linejoin="round"/>
<path d="M369.8 186.7C369.8 186.028 369.601 185.37 369.227 184.811C368.853 184.252 368.322 183.816 367.701 183.559C367.08 183.301 366.396 183.234 365.737 183.365C365.077 183.497 364.471 183.82 363.996 184.296C363.52 184.771 363.197 185.377 363.065 186.037C362.934 186.696 363.001 187.38 363.259 188.001C363.516 188.622 363.952 189.153 364.511 189.527C365.07 189.901 365.728 190.1 366.4 190.1C366.848 190.104 367.292 190.019 367.706 189.849C368.12 189.68 368.497 189.43 368.813 189.113C369.13 188.797 369.38 188.42 369.549 188.006C369.719 187.592 369.804 187.148 369.8 186.7Z" fill="#6DAFA7"/>
<path d="M386.2 149.8C386.394 152.507 386.033 155.225 385.139 157.787C384.244 160.349 382.836 162.702 381 164.7C377.201 168.81 375.094 174.203 375.1 179.8V183.3C375.09 184.225 374.718 185.109 374.063 185.763C373.409 186.417 372.525 186.79 371.6 186.8H361.4C360.475 186.79 359.591 186.417 358.937 185.763C358.283 185.109 357.91 184.225 357.9 183.3V179.8C357.924 174.229 355.813 168.861 352 164.8C348.578 161.139 346.683 156.311 346.7 151.3C346.71 146.191 348.697 141.284 352.244 137.606C355.791 133.929 360.624 131.767 365.729 131.573C370.835 131.379 375.818 133.169 379.633 136.566C383.449 139.964 385.803 144.706 386.2 149.8Z" fill="#FFE779"/>
<path d="M357.8 179.8H375" stroke="#22272E" stroke-width="1.8" stroke-linecap="round" stroke-linejoin="round"/>
<path d="M357.8 183.2H375" stroke="#22272E" stroke-width="1.8" stroke-linecap="round" stroke-linejoin="round"/>
<path d="M364.6 179.8V152.4C364.597 151.831 364.439 151.274 364.145 150.787C363.85 150.301 363.429 149.903 362.927 149.637C362.424 149.37 361.859 149.244 361.291 149.273C360.723 149.302 360.173 149.484 359.7 149.8C359.317 150.073 359 150.429 358.772 150.84C358.544 151.252 358.411 151.709 358.382 152.179C358.354 152.648 358.43 153.118 358.606 153.554C358.782 153.991 359.053 154.382 359.4 154.7L360.6 155.8" stroke="#22272E" stroke-width="1.8" stroke-linecap="round" stroke-linejoin="round"/>
<path d="M368.2 179.8V152.4C368.203 151.831 368.361 151.274 368.655 150.787C368.95 150.301 369.371 149.903 369.873 149.637C370.376 149.37 370.941 149.244 371.509 149.273C372.077 149.302 372.627 149.484 373.1 149.8C373.483 150.073 373.8 150.429 374.028 150.84C374.256 151.252 374.389 151.709 374.418 152.179C374.446 152.648 374.37 153.118 374.194 153.554C374.018 153.991 373.747 154.382 373.4 154.7L372.2 155.8" stroke="#22272E" stroke-width="1.8" stroke-linecap="round" stroke-linejoin="round"/>
<path d="M286.2 255.3L277.4 174.7C277.256 173.52 276.728 172.42 275.896 171.571C275.065 170.721 273.977 170.169 272.8 170L158.7 155.1C158.092 155.03 157.476 155.098 156.898 155.299C156.32 155.5 155.795 155.829 155.362 156.262C154.929 156.695 154.6 157.22 154.399 157.798C154.198 158.376 154.13 158.992 154.2 159.6L165.4 255.7C165.55 256.998 166.174 258.196 167.152 259.063C168.13 259.93 169.393 260.406 170.7 260.4L282.1 259.8C282.679 259.819 283.254 259.712 283.787 259.487C284.321 259.262 284.799 258.924 285.188 258.496C285.578 258.068 285.871 257.561 286.045 257.009C286.22 256.457 286.273 255.874 286.2 255.3Z" fill="#63737A"/>
<path d="M291.3 254.9L282.5 173.7C282.373 172.514 281.85 171.405 281.015 170.552C280.181 169.7 279.083 169.153 277.9 169L163 154C162.387 153.927 161.765 153.992 161.181 154.191C160.596 154.39 160.064 154.717 159.623 155.149C159.181 155.58 158.842 156.106 158.631 156.686C158.419 157.266 158.34 157.886 158.4 158.5L169.7 255.3C169.85 256.598 170.474 257.796 171.452 258.663C172.43 259.53 173.693 260.006 175 260L287.3 259.4C287.866 259.392 288.425 259.266 288.94 259.03C289.455 258.795 289.915 258.454 290.291 258.031C290.667 257.608 290.951 257.111 291.125 256.572C291.299 256.033 291.358 255.463 291.3 254.9Z" fill="#22272E"/>
<path d="M276.8 246.9H185.4L185.1 243.9L204.4 216.7C205.525 215.081 207.173 213.899 209.067 213.353C210.961 212.807 212.986 212.929 214.8 213.7L223.6 217.3C225.509 218.077 227.632 218.152 229.591 217.511C231.551 216.87 233.219 215.555 234.3 213.8L238.2 207.4C239.25 205.664 240.877 204.352 242.796 203.694C244.716 203.036 246.805 203.073 248.7 203.8C250.444 204.489 252.365 204.588 254.171 204.082C255.977 203.577 257.567 202.494 258.7 201L270.7 185.3L276.8 246.9Z" fill="#FFE779"/>
<path d="M185.1 243.9L178.2 184.1" stroke="#6DAFA7" stroke-width="1.8" stroke-linecap="round" stroke-linejoin="round"/>
<path d="M184.8 241.2L200.5 200.2C200.881 199.179 201.463 198.245 202.212 197.454C202.96 196.662 203.86 196.028 204.857 195.59C205.855 195.152 206.93 194.918 208.02 194.902C209.109 194.887 210.191 195.09 211.2 195.5L219.3 198.7C220.922 199.324 222.699 199.429 224.383 198.999C226.067 198.569 227.576 197.626 228.7 196.3L234.1 189.7C234.797 188.838 235.662 188.127 236.643 187.612C237.624 187.096 238.701 186.787 239.806 186.703C240.911 186.618 242.022 186.761 243.07 187.122C244.118 187.482 245.081 188.053 245.9 188.8C247.23 190.009 248.923 190.743 250.714 190.888C252.505 191.032 254.293 190.58 255.8 189.6L270.4 180.3" stroke="#6DAFA7" stroke-width="1.8" stroke-linecap="round" stroke-linejoin="round"/>
<path d="M177.5 176.2L176.9 171.4C176.877 171.224 176.895 171.045 176.952 170.877C177.009 170.708 177.104 170.556 177.23 170.43C177.356 170.304 177.508 170.209 177.677 170.152C177.845 170.095 178.024 170.077 178.2 170.1L199.9 172.4C200.216 172.435 200.513 172.57 200.747 172.786C200.981 173.002 201.14 173.287 201.2 173.6L201.9 178C201.925 178.137 201.916 178.278 201.875 178.41C201.833 178.543 201.76 178.664 201.662 178.762C201.564 178.86 201.443 178.933 201.31 178.975C201.178 179.016 201.037 179.025 200.9 179L178.8 177.4C178.635 177.409 178.47 177.386 178.315 177.33C178.159 177.274 178.017 177.188 177.895 177.076C177.774 176.964 177.677 176.829 177.609 176.678C177.541 176.528 177.504 176.365 177.5 176.2Z" fill="#6DAFA7"/>
<path d="M531.4 222.6C508.3 245 479.6 249.4 469.2 234C460 220.4 468.7 196.2 487.5 178.7C506 161.5 530.4 154.4 543.6 163.5C558.5 173.7 554.1 200.6 531.4 222.6Z" fill="#F8AB5D"/>
<path d="M528.1 219.2C505 241.6 476.3 246 465.9 230.6C456.7 217 465.4 192.8 484.2 175.3C502.7 158.1 527.1 151 540.3 160.1C555.3 170.4 550.8 197.3 528.1 219.2Z" fill="#FFE779"/>
<path d="M518.4 209.5C504.5 222.8 487.1 226.1 480.1 217.2C473.7 209 478.8 193.5 491 182.1C503.2 170.7 518.8 166.5 526.9 172.9C535.6 179.7 532.1 196.3 518.4 209.5Z" fill="#6DAFA7"/>
<path d="M509.5 200.6C504 205.8 497 207.3 494 204C491 200.7 493 194.3 498.2 189.4C503.4 184.5 510.1 182.9 513.3 185.8C516.5 188.7 515 195.4 509.5 200.6Z" fill="#F4C2C9"/>
<path d="M474 167C473.495 167.468 472.903 167.832 472.258 168.071C471.612 168.309 470.925 168.417 470.238 168.39C469.55 168.362 468.874 168.198 468.25 167.908C467.626 167.618 467.065 167.208 466.6 166.7L448.8 144C448.357 143.429 448.142 142.713 448.197 141.992C448.253 141.271 448.574 140.597 449.1 140.1C449.635 139.617 450.33 139.35 451.05 139.35C451.77 139.35 452.465 139.617 453 140.1L474.2 159.6C474.696 160.086 475.087 160.67 475.347 161.314C475.608 161.958 475.733 162.649 475.714 163.344C475.695 164.038 475.533 164.721 475.238 165.351C474.943 165.98 474.522 166.541 474 167Z" fill="#22272E"/>
<path d="M452.9 148.3L447.2 149.1C446.846 149.139 446.512 149.28 446.237 149.506C445.963 149.732 445.76 150.034 445.654 150.373C445.548 150.713 445.543 151.076 445.64 151.418C445.737 151.76 445.932 152.067 446.2 152.3C449.705 155.38 453.999 157.423 458.6 158.2L461.5 158.7C461.576 158.715 461.654 158.707 461.726 158.678C461.797 158.648 461.858 158.598 461.901 158.534C461.944 158.47 461.966 158.394 461.966 158.317C461.966 158.24 461.943 158.164 461.9 158.1L454.7 149C454.478 148.747 454.199 148.551 453.886 148.43C453.572 148.308 453.234 148.263 452.9 148.3Z" fill="#6DAFA7"/>
<path d="M457.1 144.5L458.4 138.9C458.479 138.555 458.656 138.239 458.909 137.991C459.161 137.742 459.48 137.571 459.827 137.497C460.173 137.424 460.534 137.451 460.866 137.575C461.198 137.7 461.487 137.917 461.7 138.2C464.514 141.916 466.213 146.355 466.6 151L466.8 153.9C466.8 154.2 466.4 154.4 466.2 154.2L457.7 146.4C457.431 146.172 457.232 145.873 457.126 145.537C457.02 145.2 457.011 144.841 457.1 144.5Z" fill="#6DAFA7"/>
<path d="M473.2 166.1L478.9 172.2" stroke="#22272E" stroke-width="1.8" stroke-linecap="round" stroke-linejoin="round"/>
<path d="M593.3 218.7V204.1C593.295 203.757 593.156 203.429 592.914 203.186C592.671 202.944 592.343 202.805 592 202.8H585.4C585.057 202.805 584.729 202.944 584.487 203.186C584.244 203.429 584.105 203.757 584.1 204.1V218.7H580.3C580.077 218.697 579.857 218.754 579.662 218.865C579.468 218.975 579.307 219.135 579.195 219.329C579.083 219.522 579.024 219.742 579.025 219.965C579.026 220.188 579.087 220.408 579.2 220.6L587.5 233.7C587.608 233.882 587.762 234.034 587.946 234.139C588.13 234.244 588.338 234.299 588.55 234.299C588.762 234.299 588.97 234.244 589.154 234.139C589.339 234.034 589.492 233.882 589.6 233.7L597.9 220.6C598.014 220.408 598.074 220.188 598.075 219.965C598.076 219.742 598.017 219.522 597.905 219.329C597.793 219.135 597.632 218.975 597.438 218.865C597.244 218.754 597.023 218.697 596.8 218.7H593.3Z" fill="#6DAFA7"/>
<path d="M622.3 234.5V219.9C622.295 219.557 622.156 219.229 621.914 218.986C621.671 218.744 621.343 218.605 621 218.6H614.4C614.057 218.605 613.729 218.744 613.487 218.986C613.244 219.229 613.105 219.557 613.1 219.9V234.5H609.3C609.077 234.497 608.857 234.554 608.662 234.665C608.468 234.775 608.307 234.935 608.195 235.129C608.083 235.322 608.024 235.542 608.025 235.765C608.026 235.988 608.087 236.208 608.2 236.4L616.5 249.5C616.608 249.682 616.762 249.834 616.946 249.939C617.13 250.044 617.338 250.099 617.55 250.099C617.762 250.099 617.97 250.044 618.154 249.939C618.339 249.834 618.492 249.682 618.6 249.5L626.9 236.4C627.014 236.208 627.074 235.988 627.075 235.765C627.076 235.542 627.017 235.322 626.905 235.129C626.793 234.935 626.632 234.775 626.438 234.665C626.244 234.554 626.023 234.497 625.8 234.5H622.3Z" fill="#22272E"/>
<path d="M144.6 292.1C144.769 291.437 144.738 290.738 144.509 290.092C144.281 289.447 143.867 288.883 143.318 288.474C142.77 288.064 142.112 287.826 141.429 287.79C140.745 287.754 140.066 287.922 139.477 288.272C138.889 288.622 138.418 289.139 138.124 289.757C137.829 290.375 137.725 291.067 137.823 291.744C137.922 292.422 138.22 293.055 138.678 293.563C139.137 294.072 139.736 294.432 140.4 294.6C140.84 294.715 141.299 294.742 141.749 294.678C142.199 294.614 142.633 294.462 143.023 294.229C143.414 293.997 143.755 293.689 144.026 293.323C144.296 292.957 144.492 292.542 144.6 292.1Z" fill="#22272E"/>
<path d="M148.8 283.9L149 283C149.364 281.595 149.158 280.103 148.428 278.848C147.697 277.594 146.502 276.678 145.1 276.3C143.695 275.936 142.203 276.142 140.948 276.872C139.694 277.603 138.778 278.798 138.4 280.2L138.2 281.1C137.901 282.098 137.389 283.019 136.7 283.8C136.1 284.4 135.5 285.1 134.9 285.7C134.609 286.025 134.404 286.418 134.306 286.844C134.208 287.269 134.22 287.712 134.34 288.131C134.46 288.551 134.684 288.933 134.992 289.243C135.3 289.552 135.681 289.778 136.1 289.9L141.1 291.2L146.1 292.5C146.519 292.611 146.96 292.612 147.38 292.502C147.8 292.392 148.185 292.176 148.496 291.875C148.808 291.573 149.037 291.196 149.16 290.78C149.283 290.364 149.297 289.923 149.2 289.5C149 288.6 148.8 287.7 148.6 286.9C148.47 285.897 148.538 284.877 148.8 283.9Z" fill="#6DAFA7"/>
<path d="M51.9 247.4C51.9 247.4 89.3 238.9 88.7 219.1L145.9 223.6C145.9 223.6 145.2 247.9 107.9 260.3C107.8 260.3 68.1 255 51.9 247.4Z" fill="#FFE779"/>
<path d="M99.8 246.5L109.9 247.9" stroke="#22272E" stroke-width="1.8" stroke-linecap="round" stroke-linejoin="round"/>
<path d="M104 242.5L115.7 244.1" stroke="#22272E" stroke-width="1.8" stroke-linecap="round" stroke-linejoin="round"/>
<path d="M94 232.9C94 232.9 119.8 236.5 124.4 237.1" stroke="#22272E" stroke-width="1.8" stroke-linecap="round" stroke-linejoin="round"/>
<path d="M98.6 239.1C95.9329 242.894 92.2627 245.872 88 247.7C87.7429 247.787 87.4707 247.821 87.2 247.8C83.3 247 79.3 246.1 75.5 245.1C75.3801 245.073 75.2718 245.009 75.1908 244.917C75.1097 244.824 75.06 244.709 75.0489 244.586C75.0378 244.464 75.0658 244.341 75.1289 244.236C75.192 244.131 75.2869 244.048 75.4 244C79.6422 242.207 83.5873 239.779 87.1 236.8C87.2229 236.663 87.3813 236.562 87.5578 236.509C87.7342 236.456 87.9219 236.453 88.1 236.5C90.2 236.9 93.8 237.4 98.2 238.1C98.6 238.3 98.9 238.8 98.6 239.1Z" fill="#22272E"/>
<path d="M115.6 227.7C115.403 228.619 115.136 229.522 114.8 230.4C114.74 230.581 114.614 230.733 114.448 230.826C114.281 230.918 114.085 230.945 113.9 230.9L94.4 228.8C94.2653 228.786 94.1358 228.741 94.022 228.667C93.9082 228.594 93.8134 228.495 93.7451 228.378C93.6769 228.261 93.6373 228.13 93.6294 227.994C93.6216 227.859 93.6458 227.724 93.7 227.6C94.0048 226.899 94.2069 226.158 94.3 225.4C94.3608 225.206 94.4796 225.034 94.6405 224.909C94.8013 224.784 94.9965 224.711 95.2 224.7L114.8 226.5C115.3 226.8 115.7 227.2 115.6 227.7Z" fill="#6DAFA7"/>
<path d="M455.1 258C451.2 266.5 441.8 272.1 435.4 270.4C429.8 268.9 428.7 262.2 432.3 255.6C435.7 249.2 442.8 244.2 448.8 244C455.5 243.9 458.8 250 455.1 258Z" fill="#F8AB5D"/>
<path d="M453.1 256.3C449.2 264.8 439.8 270.4 433.4 268.7C427.8 267.2 426.7 260.5 430.3 253.9C433.7 247.5 440.8 242.5 446.8 242.3C453.6 242.1 456.8 248.2 453.1 256.3Z" fill="#FFE779"/>
<path d="M449.9 256C446.9 262.3 440 266.6 435.1 265.5C430.7 264.5 429.7 259.4 432.5 254.1C435.2 249.1 440.8 245.1 445.4 245.1C450.5 245.1 452.8 249.9 449.9 256Z" fill="#F8AB5D"/>
<path d="M436.6 261.4L437 260.7C437.1 260.4 437.1 260.2 436.9 260.1C436.474 259.976 436.093 259.733 435.8 259.4C435.7 259.3 435.7 259 435.9 258.7L436 258.6C436.2 258.3 436.6 258.2 436.7 258.4C436.982 258.682 437.327 258.892 437.707 259.012C438.087 259.132 438.49 259.159 438.882 259.09C439.274 259.021 439.645 258.859 439.961 258.617C440.277 258.375 440.531 258.061 440.7 257.7C440.814 257.518 440.889 257.315 440.92 257.103C440.952 256.891 440.939 256.675 440.882 256.468C440.826 256.262 440.727 256.069 440.593 255.902C440.458 255.736 440.29 255.599 440.1 255.5C439 254.7 438.5 253.8 439.3 252.4C439.614 251.801 440.054 251.276 440.588 250.862C441.123 250.448 441.741 250.154 442.4 250C442.537 249.981 442.665 249.924 442.771 249.836C442.877 249.747 442.957 249.631 443 249.5L443.4 248.8C443.463 248.663 443.561 248.545 443.684 248.457C443.807 248.37 443.95 248.316 444.1 248.3C444.3 248.3 444.4 248.5 444.3 248.8L444 249.4C443.9 249.7 443.9 249.9 444.2 249.9C444.555 249.972 444.894 250.107 445.2 250.3C445.4 250.4 445.3 250.7 445.1 251L445 251.1C444.917 251.23 444.795 251.33 444.65 251.384C444.506 251.438 444.348 251.444 444.2 251.4C443.819 251.135 443.364 250.995 442.9 251C442.443 250.958 441.985 251.06 441.59 251.294C441.195 251.527 440.883 251.879 440.7 252.3C440.3 253.1 440.6 253.6 441.5 254.3C441.784 254.464 442.031 254.686 442.223 254.952C442.415 255.218 442.548 255.521 442.615 255.843C442.681 256.164 442.678 256.496 442.607 256.816C442.535 257.136 442.397 257.437 442.2 257.7C441.889 258.378 441.416 258.969 440.823 259.423C440.231 259.876 439.536 260.177 438.8 260.3C438.663 260.319 438.535 260.376 438.429 260.464C438.323 260.553 438.244 260.669 438.2 260.8L437.8 261.6C437.728 261.73 437.628 261.843 437.507 261.929C437.385 262.016 437.247 262.074 437.1 262.1C436.5 261.9 436.4 261.7 436.6 261.4Z" fill="#FFE779"/>
<path d="M133.3 404.4H123.5L123 422.2H132.4L133.3 404.4Z" fill="#6DAFA7"/>
<path d="M123 422.2L117.1 601.4C117.076 601.844 117.145 602.289 117.301 602.705C117.457 603.122 117.698 603.501 118.008 603.82C118.317 604.14 118.69 604.391 119.102 604.56C119.513 604.729 119.955 604.81 120.4 604.8C121.242 604.804 122.054 604.485 122.668 603.908C123.282 603.331 123.651 602.541 123.7 601.7L132.4 422.2H123Z" fill="#B0D7C0"/>
<path d="M619.6 404.4H609.9L610.7 422.2H620.2L619.6 404.4Z" fill="#6DAFA7"/>
<path d="M610.7 422.2L619.4 601.7C619.44 602.575 619.826 603.399 620.473 603.99C621.12 604.58 621.975 604.89 622.85 604.85C623.725 604.81 624.549 604.424 625.139 603.777C625.73 603.13 626.04 602.275 626 601.4L620.1 422.2H610.7Z" fill="#B0D7C0"/>
<path d="M159.4 380.1L153.9 548.6C153.881 548.977 153.939 549.355 154.072 549.709C154.205 550.063 154.408 550.385 154.671 550.657C154.933 550.929 155.249 551.144 155.598 551.289C155.947 551.434 156.322 551.506 156.7 551.5C157.427 551.506 158.127 551.226 158.651 550.721C159.174 550.217 159.479 549.527 159.5 548.8L167.7 380.1H159.4Z" fill="#B0D7C0"/>
<path d="M583.7 380.1L589.2 548.6C589.219 548.977 589.161 549.355 589.028 549.709C588.896 550.063 588.692 550.385 588.429 550.657C588.167 550.929 587.851 551.144 587.502 551.289C587.153 551.434 586.778 551.506 586.4 551.5C585.673 551.506 584.973 551.226 584.449 550.721C583.926 550.217 583.621 549.527 583.6 548.8L575.4 380.1H583.7Z" fill="#B0D7C0"/>
<path d="M647.3 400.6H95.8L153.6 373.1H589.6L647.3 400.6Z" fill="white"/>
<path d="M647.3 400.6H95.8V408.1H647.3V400.6Z" fill="#B0D7C0"/>
<path d="M547.8 374C547.8 374 543.1 371.7 541.5 367.1C539.9 362.5 542.7 359.4 543.9 359.7C545.1 360 546.9 365.8 548.4 365.8C549.9 365.8 549.6 355.6 552.6 354.5C555.6 353.4 555.3 364.6 555.4 365.5C555.6 367.8 559.5 362.8 560.9 360.8C562.6 358.3 568.1 367.3 556.6 374C553.69 374.523 550.71 374.523 547.8 374Z" fill="#6DAFA7"/>
<path d="M567.2 375.1V375.5C567.066 381.451 565.916 387.336 563.8 392.9C563.607 393.357 563.289 393.75 562.882 394.033C562.475 394.317 561.995 394.478 561.5 394.5H543.5C543 394.498 542.512 394.343 542.101 394.058C541.69 393.772 541.376 393.368 541.2 392.9C539.074 387.339 537.924 381.452 537.8 375.5V375.1C537.792 374.848 537.835 374.597 537.928 374.363C538.02 374.129 538.16 373.916 538.338 373.738C538.516 373.56 538.729 373.42 538.963 373.328C539.197 373.235 539.448 373.192 539.7 373.2H565.3C565.554 373.182 565.809 373.219 566.048 373.308C566.286 373.398 566.503 373.537 566.683 373.717C566.863 373.897 567.002 374.114 567.092 374.352C567.181 374.591 567.218 374.846 567.2 375.1Z" fill="#22272E"/>
<path d="M499.6 367.7C491.8 368.5 489.8 389.6 475 391.7C475 391.7 472.3 391.8 467.9 391.9C455.2 392.3 429 392.9 418.4 392C419.938 391.99 421.474 391.89 423 391.7C427.6 391.1 430.9 388.6 433.6 385.6C439.6 378.6 442.3 368.3 447.6 367.8H499.6V367.7Z" fill="#22272E"/>
<path d="M433.5 385.6C430.873 388.91 427.082 391.092 422.9 391.7C421.374 391.893 419.838 391.993 418.3 392C407.1 392 403.8 385.8 403.8 385.8C403.8 385.8 421.7 386.6 433.5 385.6Z" fill="#6DAFA7"/>
<path d="M357.9 394.1H285.3V388.7H363.3C363.303 389.41 363.165 390.113 362.894 390.77C362.624 391.426 362.226 392.022 361.724 392.524C361.222 393.026 360.626 393.424 359.97 393.694C359.313 393.965 358.61 394.103 357.9 394.1Z" fill="#22272E"/>
<path d="M300.9 394.1H189C187.234 394.09 185.522 393.496 184.129 392.411C182.736 391.325 181.741 389.81 181.3 388.1L162.9 314.8C162.743 314.161 162.733 313.494 162.87 312.851C163.007 312.207 163.289 311.603 163.693 311.083C164.097 310.564 164.613 310.142 165.203 309.851C165.793 309.559 166.442 309.405 167.1 309.4H279C280.766 309.41 282.478 310.004 283.871 311.09C285.264 312.175 286.259 313.69 286.7 315.4L305.1 388.7C305.267 389.34 305.285 390.01 305.152 390.658C305.019 391.306 304.738 391.914 304.332 392.436C303.926 392.958 303.405 393.38 302.81 393.668C302.215 393.957 301.561 394.105 300.9 394.1Z" fill="#22272E"/>
<path d="M234.794 358.082C237.442 355.042 236.313 349.725 232.273 346.207C228.233 342.689 222.811 342.302 220.164 345.342C217.516 348.382 218.645 353.699 222.685 357.217C226.725 360.736 232.146 361.123 234.794 358.082Z" fill="#63737A"/>
<path d="M364 383.3H340.3C339.744 383.297 339.211 383.075 338.818 382.682C338.425 382.289 338.203 381.756 338.2 381.2C338.208 378.312 339.359 375.544 341.401 373.501C343.444 371.459 346.212 370.308 349.1 370.3H355.1C357.988 370.308 360.756 371.459 362.799 373.501C364.841 375.544 365.992 378.312 366 381.2C366.014 381.471 365.972 381.742 365.877 381.996C365.783 382.25 365.638 382.483 365.451 382.679C365.264 382.876 365.039 383.032 364.789 383.139C364.54 383.245 364.271 383.3 364 383.3Z" fill="#22272E"/>
<path d="M508.4 385.7C506.2 385.3 502.6 384.2 501.4 380.2C500.2 376.2 509.3 367.5 512.1 367.5C514.9 367.5 520 370.3 522.7 374.1C525.4 377.9 520.4 380.3 521 382.1C521.6 383.9 516 387.2 508.4 385.7Z" fill="white" stroke="#B0D7C0" stroke-width="1.8" stroke-linecap="round" stroke-linejoin="round"/>
<path d="M501.4 380.2C501.4 380.2 506.1 383.6 508.3 382.6C510.5 381.6 512.2 378.8 516.1 379.2C520 379.6 519.2 372.8 516.1 371.7C513 370.6 510.8 377.6 508.3 377.7C505.8 377.8 505.2 376.2 507.5 374.4" fill="white"/>
<path d="M501.4 380.2C501.4 380.2 506.1 383.6 508.3 382.6C510.5 381.6 512.2 378.8 516.1 379.2C520 379.6 519.2 372.8 516.1 371.7C513 370.6 510.8 377.6 508.3 377.7C505.8 377.8 505.2 376.2 507.5 374.4" stroke="#B0D7C0" stroke-width="1.8" stroke-linecap="round" stroke-linejoin="round"/>
<path d="M496.7 391.9C496.7 391.9 499.2 389 498.1 387.4C497 385.8 496.1 385.3 495.6 384.4C494.9 383 495 380 493.4 378.5C491.8 377 489.2 379.4 483.2 378.6C478.6 378 474.4 385.1 476 387.1C476.594 388.018 477.337 388.829 478.2 389.5C478.2 389.5 477.3 391.3 477.8 392.4C478.3 393.5 481.8 395.1 487.1 395.6C492.4 396.1 496.7 391.9 496.7 391.9Z" fill="white" stroke="#B0D7C0" stroke-width="1.8" stroke-linecap="round" stroke-linejoin="round"/>
<path d="M478.2 389.6C478.2 389.6 483 393.3 486.4 392.5C489.8 391.7 493.1 385.5 492.9 383.8C492.7 382.1 491.3 381.3 487.9 384.4C484.5 387.5 481.9 386.7 482.2 384" fill="white"/>
<path d="M478.2 389.6C478.2 389.6 483 393.3 486.4 392.5C489.8 391.7 493.1 385.5 492.9 383.8C492.7 382.1 491.3 381.3 487.9 384.4C484.5 387.5 481.9 386.7 482.2 384" stroke="#B0D7C0" stroke-width="1.8" stroke-linecap="round" stroke-linejoin="round"/>
</svg>
