<svg width="882" height="768" viewBox="0 0 882 768" fill="none" xmlns="http://www.w3.org/2000/svg">
<path d="M624.3 570.1L104.3 555.2C92.6082 554.875 81.4359 550.299 72.8761 542.328C64.3162 534.357 58.9562 523.539 57.8 511.9L32.7 263.9C32.0318 257.262 32.7496 250.557 34.8079 244.21C36.8663 237.864 40.2203 232.014 44.6576 227.032C49.0948 222.049 54.5185 218.042 60.5851 215.266C66.6517 212.489 73.2289 211.002 79.9 210.9L658.7 202.9C665.583 202.807 672.406 204.189 678.71 206.953C685.014 209.717 690.654 213.799 695.249 218.924C699.844 224.05 703.287 230.1 705.349 236.668C707.411 243.235 708.042 250.168 707.2 257L673.5 527.9C672.015 539.793 666.152 550.705 657.055 558.508C647.958 566.311 636.28 570.443 624.3 570.1Z" fill="#EAF9F3"/>
<mask id="mask0_24_175" style="mask-type:luminance" maskUnits="userSpaceOnUse" x="32" y="202" width="676" height="369">
<path d="M624.3 570.1L104.3 555.2C92.6082 554.875 81.4359 550.299 72.8761 542.328C64.3162 534.357 58.9562 523.539 57.8 511.9L32.7 263.9C32.0318 257.262 32.7496 250.557 34.8079 244.21C36.8663 237.864 40.2203 232.014 44.6576 227.032C49.0948 222.049 54.5185 218.042 60.5851 215.266C66.6517 212.489 73.2289 211.002 79.9 210.9L658.7 202.9C665.583 202.807 672.406 204.189 678.71 206.953C685.014 209.717 690.654 213.799 695.249 218.924C699.844 224.05 703.287 230.1 705.349 236.668C707.411 243.235 708.042 250.168 707.2 257L673.5 527.9C672.015 539.793 666.152 550.705 657.055 558.508C647.958 566.311 636.28 570.443 624.3 570.1Z" fill="white"/>
</mask>
<g mask="url(#mask0_24_175)">
<path d="M549.4 637.4H964.9C968.878 637.4 972.694 635.82 975.507 633.007C978.32 630.194 979.9 626.378 979.9 622.4V386.8C979.9 382.822 978.32 379.006 975.507 376.193C972.694 373.38 968.878 371.8 964.9 371.8H549.4C545.422 371.8 541.607 373.38 538.794 376.193C535.98 379.006 534.4 382.822 534.4 386.8V622.4C534.4 626.378 535.98 630.194 538.794 633.007C541.607 635.82 545.422 637.4 549.4 637.4Z" stroke="#B8D8C7" stroke-width="1.8" stroke-linecap="round" stroke-linejoin="round"/>
<path d="M0.300049 621.6H419.4C423.378 621.6 427.194 620.02 430.007 617.207C432.82 614.394 434.4 610.578 434.4 606.6V262.3C434.4 258.322 432.82 254.506 430.007 251.693C427.194 248.88 423.378 247.3 419.4 247.3H0.300049C-3.6782 247.3 -7.4935 248.88 -10.3065 251.693C-13.1196 254.506 -14.7 258.322 -14.7 262.3V606.6C-14.7 610.578 -13.1196 614.394 -10.3065 617.207C-7.4935 620.02 -3.6782 621.6 0.300049 621.6Z" stroke="#B8D8C7" stroke-width="1.8" stroke-linecap="round" stroke-linejoin="round"/>
<path d="M649.1 301.4H739V292.5H649.1C648.863 292.499 648.629 292.544 648.41 292.634C648.191 292.724 647.992 292.857 647.824 293.024C647.657 293.192 647.524 293.391 647.434 293.61C647.344 293.829 647.299 294.063 647.3 294.3V299.5C647.28 299.746 647.313 299.993 647.395 300.226C647.477 300.459 647.607 300.672 647.777 300.851C647.946 301.03 648.152 301.172 648.38 301.266C648.608 301.361 648.853 301.406 649.1 301.4Z" stroke="#B8D8C7" stroke-width="1.8" stroke-linecap="round" stroke-linejoin="round"/>
<path d="M665.4 292.5H685.7C686.758 292.503 687.78 292.117 688.572 291.417C689.365 290.717 689.873 289.75 690 288.7L691.6 274.3C691.666 273.696 691.604 273.084 691.418 272.505C691.232 271.927 690.926 271.394 690.521 270.941C690.115 270.488 689.619 270.126 689.064 269.877C688.509 269.629 687.908 269.501 687.3 269.5H663.8C663.193 269.502 662.592 269.632 662.038 269.881C661.484 270.129 660.988 270.492 660.583 270.944C660.178 271.397 659.872 271.929 659.685 272.507C659.499 273.085 659.436 273.696 659.5 274.3L661.1 288.7C661.212 289.756 661.716 290.732 662.512 291.435C663.308 292.139 664.338 292.518 665.4 292.5Z" stroke="#B8D8C7" stroke-width="1.8" stroke-linecap="round" stroke-linejoin="round"/>
<path d="M677.9 269.6C677.9 269.6 685.9 268.8 687.5 258C687.5 258 680.3 260.1 678 265.2C678 265.2 677 253.8 671.6 252.7C671.6 252.7 669.2 261.2 673 265.4C673 265.4 670.1 260.6 662.7 260.7C663.399 262.806 664.603 264.709 666.207 266.243C667.811 267.777 669.765 268.895 671.9 269.5" fill="#B8D8C7"/>
<path d="M552.6 421.5H642.8C643.912 421.492 644.975 421.047 645.761 420.261C646.547 419.475 646.992 418.411 647 417.3V389.9C646.992 388.789 646.547 387.725 645.761 386.939C644.975 386.153 643.912 385.708 642.8 385.7H552.6C551.489 385.708 550.425 386.153 549.639 386.939C548.853 387.725 548.408 388.789 548.4 389.9V417.3C548.408 418.411 548.853 419.475 549.639 420.261C550.425 421.047 551.489 421.492 552.6 421.5Z" stroke="#B8D8C7" stroke-width="1.8" stroke-linecap="round" stroke-linejoin="round"/>
<path d="M587.3 395.3H608.1C608.495 395.29 608.87 395.129 609.15 394.849C609.429 394.57 609.59 394.195 609.6 393.8C609.59 393.405 609.429 393.03 609.15 392.751C608.87 392.471 608.495 392.31 608.1 392.3H587.3C586.905 392.31 586.53 392.471 586.251 392.751C585.972 393.03 585.81 393.405 585.8 393.8C585.796 393.998 585.832 394.195 585.906 394.379C585.98 394.563 586.09 394.73 586.23 394.87C586.37 395.01 586.537 395.12 586.721 395.194C586.905 395.268 587.102 395.304 587.3 395.3Z" fill="#B8D8C7"/>
<path d="M552.6 467.3H642.8C643.912 467.292 644.975 466.847 645.761 466.061C646.547 465.275 646.992 464.211 647 463.1V435.7C646.992 434.589 646.547 433.525 645.761 432.739C644.975 431.953 643.912 431.508 642.8 431.5H552.6C551.489 431.508 550.425 431.953 549.639 432.739C548.853 433.525 548.408 434.589 548.4 435.7V463C548.394 463.558 548.497 464.112 548.704 464.63C548.912 465.148 549.22 465.621 549.61 466.02C550 466.419 550.464 466.738 550.978 466.957C551.491 467.177 552.042 467.293 552.6 467.3Z" stroke="#B8D8C7" stroke-width="1.8" stroke-linecap="round" stroke-linejoin="round"/>
<path d="M587.3 441.1H608.1C608.495 441.09 608.87 440.929 609.15 440.649C609.429 440.37 609.59 439.995 609.6 439.6C609.59 439.205 609.429 438.83 609.15 438.551C608.87 438.271 608.495 438.11 608.1 438.1H587.3C586.905 438.11 586.53 438.271 586.251 438.551C585.972 438.83 585.81 439.205 585.8 439.6C585.796 439.798 585.832 439.995 585.906 440.179C585.98 440.363 586.09 440.53 586.23 440.67C586.37 440.81 586.537 440.92 586.721 440.994C586.905 441.068 587.102 441.104 587.3 441.1Z" fill="#B8D8C7"/>
<path d="M89.3999 499.6H179.6C180.711 499.592 181.775 499.147 182.561 498.361C183.347 497.575 183.792 496.511 183.8 495.4V468C183.792 466.889 183.347 465.825 182.561 465.039C181.775 464.253 180.711 463.808 179.6 463.8H89.3999C88.2885 463.808 87.2247 464.253 86.4388 465.039C85.6528 465.825 85.2078 466.889 85.2 468V495.4C85.2078 496.511 85.6528 497.575 86.4388 498.361C87.2247 499.147 88.2885 499.592 89.3999 499.6Z" stroke="#B8D8C7" stroke-width="1.8" stroke-linecap="round" stroke-linejoin="round"/>
<path d="M124.2 473.5H145C145.395 473.49 145.77 473.329 146.049 473.049C146.329 472.77 146.49 472.395 146.5 472C146.49 471.605 146.329 471.23 146.049 470.951C145.77 470.671 145.395 470.51 145 470.5H124.2C123.805 470.51 123.43 470.671 123.151 470.951C122.871 471.23 122.71 471.605 122.7 472C122.696 472.198 122.732 472.395 122.806 472.579C122.88 472.763 122.99 472.93 123.13 473.07C123.27 473.21 123.437 473.32 123.621 473.394C123.805 473.468 124.002 473.504 124.2 473.5Z" fill="#B8D8C7"/>
<path d="M205.2 499.6H295.4C296.511 499.592 297.575 499.147 298.361 498.361C299.147 497.575 299.592 496.511 299.6 495.4V468C299.592 466.889 299.147 465.825 298.361 465.039C297.575 464.253 296.511 463.808 295.4 463.8H205.2C204.089 463.808 203.025 464.253 202.239 465.039C201.453 465.825 201.008 466.889 201 468V495.4C201.008 496.511 201.453 497.575 202.239 498.361C203.025 499.147 204.089 499.592 205.2 499.6Z" stroke="#B8D8C7" stroke-width="1.8" stroke-linecap="round" stroke-linejoin="round"/>
<path d="M240 473.5H260.8C261.195 473.49 261.57 473.329 261.85 473.049C262.129 472.77 262.29 472.395 262.3 472C262.29 471.605 262.129 471.23 261.85 470.951C261.57 470.671 261.195 470.51 260.8 470.5H240C239.605 470.51 239.23 470.671 238.951 470.951C238.671 471.23 238.51 471.605 238.5 472C238.496 472.198 238.532 472.395 238.606 472.579C238.68 472.763 238.79 472.93 238.93 473.07C239.07 473.21 239.237 473.32 239.421 473.394C239.605 473.468 239.802 473.504 240 473.5Z" fill="#B8D8C7"/>
<path d="M667.6 421.5H757.8C758.912 421.492 759.975 421.047 760.761 420.261C761.547 419.475 761.992 418.411 762 417.3V389.9C761.992 388.789 761.547 387.725 760.761 386.939C759.975 386.153 758.912 385.708 757.8 385.7H667.6C666.489 385.708 665.425 386.153 664.639 386.939C663.853 387.725 663.408 388.789 663.4 389.9V417.3C663.408 418.411 663.853 419.475 664.639 420.261C665.425 421.047 666.489 421.492 667.6 421.5Z" stroke="#B8D8C7" stroke-width="1.8" stroke-linecap="round" stroke-linejoin="round"/>
<path d="M702.3 395.3H723.1C723.495 395.29 723.87 395.129 724.15 394.849C724.429 394.57 724.59 394.195 724.6 393.8C724.59 393.405 724.429 393.03 724.15 392.751C723.87 392.471 723.495 392.31 723.1 392.3H702.3C701.905 392.31 701.53 392.471 701.251 392.751C700.972 393.03 700.81 393.405 700.8 393.8C700.796 393.998 700.832 394.195 700.906 394.379C700.98 394.563 701.09 394.73 701.23 394.87C701.37 395.01 701.537 395.12 701.721 395.194C701.905 395.268 702.102 395.304 702.3 395.3Z" fill="#B8D8C7"/>
<path d="M667.6 467.3H757.8C758.912 467.292 759.975 466.847 760.761 466.061C761.547 465.275 761.992 464.211 762 463.1V435.7C761.992 434.589 761.547 433.525 760.761 432.739C759.975 431.953 758.912 431.508 757.8 431.5H667.6C666.489 431.508 665.425 431.953 664.639 432.739C663.853 433.525 663.408 434.589 663.4 435.7V463C663.394 463.558 663.497 464.112 663.704 464.63C663.912 465.148 664.22 465.621 664.61 466.02C665 466.419 665.464 466.738 665.978 466.957C666.491 467.177 667.042 467.293 667.6 467.3Z" stroke="#B8D8C7" stroke-width="1.8" stroke-linecap="round" stroke-linejoin="round"/>
<path d="M702.3 441.1H723.1C723.495 441.09 723.87 440.929 724.15 440.649C724.429 440.37 724.59 439.995 724.6 439.6C724.59 439.205 724.429 438.83 724.15 438.551C723.87 438.271 723.495 438.11 723.1 438.1H702.3C701.905 438.11 701.53 438.271 701.251 438.551C700.972 438.83 700.81 439.205 700.8 439.6C700.796 439.798 700.832 439.995 700.906 440.179C700.98 440.363 701.09 440.53 701.23 440.67C701.37 440.81 701.537 440.92 701.721 440.994C701.905 441.068 702.102 441.104 702.3 441.1Z" fill="#B8D8C7"/>
<path d="M-41.9 352.1H413.1C414.316 352.087 415.478 351.598 416.338 350.738C417.198 349.878 417.687 348.716 417.7 347.5V267.8C417.687 266.584 417.198 265.422 416.338 264.562C415.478 263.702 414.316 263.213 413.1 263.2H-41.9C-43.116 263.213 -44.2784 263.702 -45.1383 264.562C-45.9982 265.422 -46.487 266.584 -46.5 267.8V347.5C-46.5013 348.104 -46.3832 348.703 -46.1525 349.262C-45.9218 349.821 -45.583 350.328 -45.1556 350.756C-44.7282 351.183 -44.2206 351.522 -43.6619 351.753C-43.1032 351.983 -42.5044 352.101 -41.9 352.1Z" stroke="#B8D8C7" stroke-width="1.8" stroke-linecap="round" stroke-linejoin="round"/>
<path d="M-41.9 451.1H413.1C414.316 451.087 415.478 450.598 416.338 449.738C417.198 448.878 417.687 447.716 417.7 446.5V366.8C417.687 365.584 417.198 364.422 416.338 363.562C415.478 362.702 414.316 362.213 413.1 362.2H-41.9C-43.116 362.213 -44.2784 362.702 -45.1383 363.562C-45.9982 364.422 -46.487 365.584 -46.5 366.8V446.5C-46.487 447.716 -45.9982 448.878 -45.1383 449.738C-44.2784 450.598 -43.116 451.087 -41.9 451.1Z" stroke="#B8D8C7" stroke-width="1.8" stroke-linecap="round" stroke-linejoin="round"/>
<path d="M387.13 301.82H377.23V352.12H387.13V301.82Z" stroke="#B8D8C7" stroke-width="1.8" stroke-linecap="round" stroke-linejoin="round"/>
<path d="M377.19 315.54H366.89V352.14H377.19V315.54Z" stroke="#B8D8C7" stroke-width="1.8" stroke-linecap="round" stroke-linejoin="round"/>
<path d="M88.7501 400.66H78.8501V450.96H88.7501V400.66Z" stroke="#B8D8C7" stroke-width="1.8" stroke-linecap="round" stroke-linejoin="round"/>
<path d="M78.81 414.38H68.51V450.98H78.81V414.38Z" stroke="#B8D8C7" stroke-width="1.8" stroke-linecap="round" stroke-linejoin="round"/>
<path d="M108.84 400.66H98.9399V450.96H108.84V400.66Z" stroke="#B8D8C7" stroke-width="1.8" stroke-linecap="round" stroke-linejoin="round"/>
<path d="M118.106 399.525L108.665 402.506L123.807 450.472L133.248 447.492L118.106 399.525Z" stroke="#B8D8C7" stroke-width="1.8" stroke-linecap="round" stroke-linejoin="round"/>
<path d="M99 414.38H88.7V450.98H99V414.38Z" stroke="#B8D8C7" stroke-width="1.8" stroke-linecap="round" stroke-linejoin="round"/>
<path d="M78.9999 308.4L77.8999 293.5C77.8785 293.267 77.907 293.032 77.9834 292.81C78.0599 292.589 78.1826 292.386 78.3434 292.216C78.5043 292.046 78.6995 291.912 78.9161 291.823C79.1328 291.734 79.3659 291.692 79.5999 291.7H88.1999C88.4314 291.701 88.6603 291.749 88.8727 291.841C89.0851 291.933 89.2766 292.068 89.4355 292.236C89.5945 292.404 89.7176 292.603 89.7974 292.82C89.8772 293.038 89.9121 293.269 89.8999 293.5L88.7999 308.4C88.7999 308.4 97.7999 314.2 97.6999 319C97.5999 322.7 95.3999 340.4 94.3999 348.2C94.2726 349.25 93.7646 350.217 92.972 350.917C92.1795 351.617 91.1576 352.003 90.0999 352H77.6999C76.6423 352.003 75.6204 351.617 74.8278 350.917C74.0353 350.217 73.5272 349.25 73.3999 348.2C72.3999 340.4 70.1999 322.7 70.0999 319C69.9999 314.2 78.9999 308.4 78.9999 308.4Z" fill="#B8D8C7"/>
<path d="M718.1 545.4H-237.7" stroke="#B8D8C7" stroke-width="1.8" stroke-linecap="round" stroke-linejoin="round"/>
</g>
<path d="M281.9 451.1H198.7C197.401 451.097 196.157 450.58 195.238 449.662C194.32 448.744 193.803 447.499 193.8 446.2V433C193.803 431.701 194.32 430.456 195.238 429.538C196.157 428.62 197.401 428.103 198.7 428.1H281.9C283.199 428.103 284.444 428.62 285.362 429.538C286.28 430.456 286.797 431.701 286.8 433V446.1C286.809 446.751 286.69 447.397 286.448 448.001C286.206 448.605 285.847 449.156 285.392 449.621C284.936 450.086 284.393 450.456 283.794 450.709C283.194 450.963 282.551 451.096 281.9 451.1Z" stroke="#B8D8C7" stroke-width="1.8" stroke-linecap="round" stroke-linejoin="round"/>
<path d="M270.2 407.1H210.2V428.1H270.2V407.1Z" stroke="#B8D8C7" stroke-width="1.8" stroke-linecap="round" stroke-linejoin="round"/>
<path d="M203.2 437.3C204.028 437.3 204.7 436.628 204.7 435.8C204.7 434.972 204.028 434.3 203.2 434.3C202.372 434.3 201.7 434.972 201.7 435.8C201.7 436.628 202.372 437.3 203.2 437.3Z" fill="#B8D8C7"/>
<path d="M265.8 463H255.5L254.4 475.8H264.3L265.8 463Z" fill="#6DAFA7"/>
<path d="M254.4 475.8L241.3 624.8C241.273 625.202 241.327 625.606 241.46 625.986C241.592 626.367 241.8 626.717 242.07 627.016C242.341 627.315 242.669 627.556 243.035 627.725C243.401 627.894 243.797 627.987 244.2 628C244.919 627.999 245.612 627.734 246.147 627.254C246.682 626.774 247.021 626.114 247.1 625.4L264.3 475.8H254.4Z" fill="#B0D7C0"/>
<path d="M355.8 463H345.5L347 475.8H356.9L355.8 463Z" fill="#B0D7C0"/>
<path d="M347 475.8L364.2 625.4C364.318 626.137 364.714 626.801 365.306 627.255C365.898 627.709 366.641 627.92 367.384 627.843C368.126 627.766 368.811 627.408 369.297 626.842C369.784 626.276 370.035 625.545 370 624.8L356.9 475.8H347Z" fill="#B0D7C0"/>
<path d="M359.6 544H253.4V549.1H359.6V544Z" fill="#B0D7C0"/>
<path d="M366.4 466.7H244.9C244.44 466.703 243.983 466.614 243.557 466.439C243.132 466.264 242.745 466.006 242.419 465.681C242.094 465.355 241.836 464.968 241.661 464.542C241.486 464.117 241.397 463.66 241.4 463.2V462.9C241.397 462.44 241.486 461.983 241.661 461.557C241.836 461.132 242.094 460.745 242.419 460.419C242.745 460.094 243.132 459.836 243.557 459.661C243.983 459.486 244.44 459.397 244.9 459.4H366.5C366.96 459.397 367.417 459.486 367.842 459.661C368.268 459.836 368.655 460.094 368.981 460.419C369.306 460.745 369.564 461.132 369.739 461.557C369.914 461.983 370.003 462.44 370 462.9V463.2C369.984 464.141 369.597 465.037 368.922 465.693C368.247 466.349 367.341 466.711 366.4 466.7Z" fill="#22272E"/>
<path d="M553.7 404.8L464.2 399.3C462.626 399.213 461.088 398.791 459.69 398.063C458.291 397.335 457.064 396.317 456.089 395.078C455.115 393.838 454.416 392.406 454.038 390.875C453.661 389.344 453.614 387.75 453.9 386.2L488 195.1C488.588 191.914 490.191 189.003 492.57 186.804C494.95 184.605 497.977 183.235 501.2 182.9L591.1 174.2C592.809 174.039 594.532 174.272 596.136 174.882C597.74 175.492 599.183 176.463 600.352 177.72C601.522 178.976 602.387 180.484 602.88 182.128C603.374 183.772 603.484 185.507 603.2 187.2L569.2 392.4C568.625 396.026 566.717 399.307 563.85 401.6C560.983 403.894 557.364 405.035 553.7 404.8Z" fill="#F8AB5D"/>
<path d="M548.8 404.2L459.3 398.7C457.726 398.613 456.188 398.191 454.79 397.463C453.391 396.735 452.164 395.717 451.189 394.478C450.215 393.238 449.516 391.806 449.138 390.275C448.761 388.744 448.713 387.15 449 385.6L483.1 194.5C483.687 191.314 485.291 188.403 487.67 186.204C490.05 184.005 493.077 182.635 496.3 182.3L586.2 173.6C587.909 173.438 589.632 173.672 591.236 174.282C592.84 174.892 594.283 175.863 595.452 177.12C596.621 178.376 597.486 179.884 597.98 181.528C598.474 183.172 598.583 184.907 598.3 186.6L564.3 391.8C563.708 395.418 561.795 398.688 558.933 400.978C556.07 403.269 552.46 404.416 548.8 404.2Z" fill="#FFE779"/>
<mask id="mask1_24_175" style="mask-type:luminance" maskUnits="userSpaceOnUse" x="448" y="173" width="151" height="232">
<path d="M548.8 404.2L459.3 398.7C457.726 398.613 456.188 398.191 454.79 397.463C453.391 396.735 452.164 395.717 451.189 394.478C450.215 393.238 449.516 391.806 449.138 390.275C448.761 388.744 448.713 387.15 449 385.6L483.1 194.5C483.687 191.314 485.291 188.403 487.67 186.204C490.05 184.005 493.077 182.635 496.3 182.3L586.2 173.6C587.909 173.438 589.632 173.672 591.236 174.282C592.84 174.892 594.283 175.863 595.452 177.12C596.621 178.376 597.486 179.884 597.98 181.528C598.474 183.172 598.583 184.907 598.3 186.6L564.3 391.8C563.708 395.418 561.795 398.688 558.933 400.978C556.07 403.269 552.46 404.416 548.8 404.2Z" fill="white"/>
</mask>
<g mask="url(#mask1_24_175)">
<path d="M639 296.2L501.2 298.6C500.36 298.613 499.526 298.44 498.761 298.093C497.995 297.746 497.315 297.234 496.77 296.594C496.225 295.954 495.829 295.201 495.609 294.389C495.39 293.578 495.353 292.728 495.5 291.9L505.6 234.4C505.887 232.813 506.689 231.365 507.882 230.281C509.076 229.196 510.593 228.535 512.2 228.4L648.2 219.3C649.287 219.229 650.376 219.405 651.385 219.815C652.395 220.224 653.298 220.856 654.029 221.664C654.76 222.472 655.299 223.434 655.605 224.479C655.912 225.524 655.979 226.625 655.8 227.7L645.8 290.2C645.614 291.866 644.815 293.403 643.558 294.512C642.301 295.621 640.676 296.223 639 296.2Z" fill="#F8AB5D"/>
</g>
<mask id="mask2_24_175" style="mask-type:luminance" maskUnits="userSpaceOnUse" x="448" y="173" width="151" height="232">
<path d="M548.8 404.2L459.3 398.7C457.726 398.613 456.188 398.191 454.79 397.463C453.391 396.735 452.164 395.717 451.189 394.478C450.215 393.238 449.516 391.806 449.138 390.275C448.761 388.744 448.713 387.15 449 385.6L483.1 194.5C483.687 191.314 485.291 188.403 487.67 186.204C490.05 184.005 493.077 182.635 496.3 182.3L586.2 173.6C587.909 173.438 589.632 173.672 591.236 174.282C592.84 174.892 594.283 175.863 595.452 177.12C596.621 178.376 597.486 179.884 597.98 181.528C598.474 183.172 598.583 184.907 598.3 186.6L564.3 391.8C563.708 395.418 561.795 398.688 558.933 400.978C556.07 403.269 552.46 404.416 548.8 404.2Z" fill="white"/>
</mask>
<g mask="url(#mask2_24_175)">
<path d="M623.8 388.9L486 382.9C485.189 382.857 484.397 382.644 483.674 382.274C482.951 381.905 482.314 381.387 481.805 380.755C481.295 380.123 480.925 379.391 480.717 378.606C480.509 377.821 480.47 377.001 480.6 376.2L491 317.3C491.298 315.629 492.171 314.115 493.468 313.019C494.764 311.924 496.403 311.315 498.1 311.3L634.3 310.2C635.352 310.197 636.392 310.423 637.348 310.861C638.304 311.3 639.154 311.94 639.838 312.739C640.523 313.537 641.026 314.475 641.313 315.487C641.6 316.499 641.663 317.561 641.5 318.6L631.3 382.9C630.995 384.642 630.065 386.213 628.684 387.317C627.303 388.422 625.566 388.985 623.8 388.9Z" fill="#F8AB5D"/>
</g>
<path d="M481 206L596.6 196.8" stroke="#F8AB5D" stroke-width="1.8" stroke-linecap="round" stroke-linejoin="round"/>
<path d="M539.8 192.1L529.9 193C529 193.1 528.5 192.4 528.6 191.4C528.683 190.926 528.91 190.49 529.25 190.15C529.59 189.81 530.027 189.583 530.5 189.5L540.4 188.6C541.3 188.5 541.9 189.2 541.7 190.2C541.602 190.667 541.37 191.095 541.032 191.432C540.695 191.77 540.267 192.002 539.8 192.1Z" fill="#22272E"/>
<path d="M546.4 191.5C545.5 191.6 544.9 190.9 545.1 189.9C545.183 189.426 545.41 188.99 545.75 188.65C546.09 188.31 546.527 188.083 547 188C547.9 187.9 548.5 188.6 548.3 189.6C548.25 190.087 548.033 190.541 547.687 190.887C547.341 191.233 546.887 191.45 546.4 191.5Z" fill="#22272E"/>
<path d="M657.8 198.3L619.7 201.2C619.384 201.239 619.063 201.202 618.764 201.091C618.466 200.981 618.197 200.801 617.982 200.566C617.767 200.332 617.611 200.049 617.527 199.742C617.443 199.434 617.434 199.112 617.5 198.8L621.3 175.7C621.406 175.015 621.74 174.385 622.248 173.913C622.756 173.441 623.409 173.155 624.1 173.1L661.8 169.1C662.173 169.059 662.551 169.105 662.904 169.233C663.257 169.361 663.576 169.568 663.837 169.838C664.097 170.108 664.292 170.435 664.407 170.792C664.522 171.149 664.554 171.528 664.5 171.9L660.8 195.7C660.621 196.386 660.238 197.001 659.703 197.465C659.167 197.929 658.504 198.22 657.8 198.3Z" stroke="#6DAFA7" stroke-width="1.8" stroke-linecap="round" stroke-linejoin="round"/>
<path d="M622.3 173.7L638.9 184.4C639.346 184.693 639.867 184.849 640.4 184.849C640.933 184.849 641.455 184.693 641.9 184.4L663.5 169.6" stroke="#6DAFA7" stroke-width="1.8" stroke-linecap="round" stroke-linejoin="round"/>
<path d="M485.9 241.5L454.6 243.2L450 246.2C449.762 246.357 449.482 246.439 449.197 246.437C448.912 246.434 448.633 246.347 448.398 246.186C448.162 246.026 447.98 245.799 447.873 245.534C447.767 245.269 447.741 244.979 447.8 244.7L452.7 217.5C452.892 216.442 453.427 215.477 454.222 214.754C455.017 214.031 456.029 213.59 457.1 213.5L489.7 211C490.197 210.956 490.698 211.027 491.163 211.207C491.629 211.387 492.047 211.672 492.385 212.039C492.723 212.406 492.972 212.846 493.114 213.325C493.255 213.803 493.285 214.308 493.2 214.8L489 238.6C488.891 239.364 488.524 240.068 487.96 240.595C487.396 241.123 486.67 241.442 485.9 241.5Z" fill="#6DAFA7"/>
<path d="M458.8 221.5L485.2 219.6" stroke="#22272E" stroke-width="1.8" stroke-linecap="round" stroke-linejoin="round"/>
<path d="M457.6 228.2L484 226.4" stroke="#22272E" stroke-width="1.8" stroke-linecap="round" stroke-linejoin="round"/>
<path d="M456.4 234.8L470.2 234" stroke="#22272E" stroke-width="1.8" stroke-linecap="round" stroke-linejoin="round"/>
<path d="M631.6 290.1L493.8 292.5C492.959 292.513 492.126 292.34 491.36 291.993C490.594 291.646 489.915 291.134 489.37 290.494C488.825 289.854 488.429 289.101 488.209 288.289C487.99 287.478 487.952 286.628 488.1 285.8L498.2 228.3C498.487 226.713 499.289 225.265 500.482 224.181C501.676 223.096 503.193 222.435 504.8 222.3L640.8 213.2C641.887 213.129 642.976 213.306 643.985 213.715C644.994 214.124 645.898 214.756 646.629 215.564C647.36 216.372 647.899 217.334 648.205 218.379C648.512 219.425 648.579 220.525 648.4 221.6L638.4 284.1C638.199 285.76 637.395 287.288 636.142 288.394C634.888 289.5 633.272 290.107 631.6 290.1Z" fill="#22272E"/>
<path d="M529.5 246.6C528.8 250.7 525.2 254.2 521.5 254.4C517.8 254.6 515.4 251.4 516.1 247.3C516.8 243.2 520.4 239.7 524.1 239.5C527.8 239.3 530.2 242.5 529.5 246.6Z" fill="#FFE779"/>
<path d="M526.9 272.9L510.5 273.4C509.977 273.421 509.457 273.325 508.976 273.119C508.496 272.913 508.067 272.602 507.722 272.209C507.377 271.816 507.124 271.351 506.982 270.847C506.84 270.344 506.812 269.815 506.9 269.3L507.2 267.5C508.5 260.1 514.9 253.8 521.6 253.6C528.3 253.3 532.8 259.2 531.5 266.7L531.1 269.3C530.904 270.284 530.384 271.173 529.622 271.826C528.861 272.478 527.902 272.857 526.9 272.9Z" fill="#FFE779"/>
<path d="M616.8 247.3L551.5 250.3C551.178 250.323 550.856 250.272 550.557 250.15C550.259 250.028 549.992 249.838 549.779 249.596C549.566 249.354 549.412 249.066 549.329 248.754C549.246 248.443 549.236 248.116 549.3 247.8L550 243.4C550.129 242.681 550.494 242.025 551.037 241.536C551.581 241.047 552.271 240.753 553 240.7L618.4 237.3C618.723 237.27 619.049 237.317 619.351 237.437C619.652 237.557 619.921 237.747 620.136 237.99C620.35 238.234 620.504 238.525 620.585 238.84C620.666 239.154 620.671 239.483 620.6 239.8L619.8 244.6C619.703 245.333 619.347 246.008 618.798 246.503C618.248 246.998 617.539 247.28 616.8 247.3Z" fill="#6DAFA7"/>
<path d="M550.8 262.1L551.8 265.2L554.9 265.7L552.2 268.4L552 271.9L549.4 270.5L546.2 272.1L547.2 268.6L545.4 266.1L548.7 265.3L550.8 262.1Z" fill="#FFE779"/>
<path d="M565.8 261.6L566.9 264.7L570 265.2L567.3 267.9L567.2 271.4L564.4 270L561.2 271.6L562.2 268.1L560.4 265.5L563.7 264.8L565.8 261.6Z" fill="#FFE779"/>
<path d="M581.2 261L582.3 264.1L585.5 264.7L582.7 267.4L582.6 271L579.8 269.5L576.5 271.2L577.5 267.6L575.6 265L579.1 264.2L581.2 261Z" fill="#FFE779"/>
<path d="M596.9 260.4L598 263.6L601.3 264.1L598.5 266.9L598.4 270.5L595.5 269L592.1 270.7L593.2 267L591.2 264.5L594.7 263.7L596.9 260.4Z" fill="#FFE779"/>
<path d="M613 259.8L614.1 263L617.5 263.6L614.6 266.3L614.5 270L611.5 268.5L608.1 270.2L609.2 266.5L607.2 263.9L610.7 263.1L613 259.8Z" fill="#FFE779"/>
<path d="M616.3 382.8L478.6 376.7C477.789 376.657 476.997 376.444 476.274 376.074C475.551 375.705 474.914 375.187 474.405 374.555C473.895 373.923 473.525 373.191 473.317 372.406C473.11 371.621 473.07 370.801 473.2 370L483.6 311.1C483.898 309.429 484.771 307.915 486.068 306.819C487.364 305.724 489.003 305.116 490.7 305.1L626.9 304C627.952 303.997 628.992 304.223 629.948 304.661C630.904 305.1 631.754 305.74 632.438 306.539C633.123 307.337 633.626 308.275 633.913 309.287C634.2 310.299 634.263 311.361 634.1 312.4L623.9 376.7C623.595 378.469 622.654 380.065 621.254 381.188C619.855 382.311 618.093 382.885 616.3 382.8Z" fill="#22272E"/>
<path d="M514.8 331.7C514.1 335.9 510.5 339.3 506.7 339.2C502.9 339.1 500.6 335.7 501.3 331.5C502 327.3 505.6 324 509.3 324C513 324 515.6 327.5 514.8 331.7Z" fill="#FFE779"/>
<path d="M511.9 358.7L495.5 358.2C495 358.176 494.51 358.047 494.062 357.823C493.613 357.599 493.217 357.284 492.897 356.899C492.577 356.513 492.341 356.065 492.204 355.583C492.067 355.101 492.031 354.596 492.1 354.1L492.5 352C493.8 344.4 500.2 338.4 506.9 338.5C513.6 338.6 518.1 344.9 516.7 352.6L516.3 355.1C516.122 356.129 515.58 357.059 514.771 357.721C513.963 358.382 512.944 358.73 511.9 358.7Z" fill="#FFE779"/>
<path d="M601.9 337.9L536.6 337C536.29 336.995 535.986 336.924 535.706 336.791C535.426 336.658 535.178 336.467 534.979 336.23C534.78 335.992 534.634 335.715 534.552 335.417C534.469 335.119 534.451 334.806 534.5 334.5L535.3 329.9C535.424 329.142 535.815 328.454 536.401 327.959C536.988 327.464 537.732 327.195 538.5 327.2L603.9 327.7C604.21 327.705 604.515 327.776 604.794 327.909C605.074 328.042 605.322 328.233 605.521 328.47C605.72 328.708 605.866 328.985 605.949 329.283C606.031 329.582 606.049 329.894 606 330.2L605.2 335.2C605.035 335.956 604.62 336.635 604.021 337.125C603.421 337.615 602.674 337.888 601.9 337.9Z" fill="#6DAFA7"/>
<path d="M536 349.1L537 352.3L540.1 353L537.4 355.6L537.3 359.2L534.6 357.5L531.4 359L532.4 355.4L530.7 352.8L533.9 352.2L536 349.1Z" fill="#FFE779"/>
<path d="M551.1 349.4L552.1 352.6L555.3 353.4L552.5 356L552.4 359.6L549.6 358L546.4 359.5L547.4 355.9L545.6 353.1L549 352.6L551.1 349.4Z" fill="#FFE779"/>
<path d="M566.5 349.8L567.5 353L570.8 353.8L568 356.4L567.8 360.1L565 358.4L561.7 359.9L562.8 356.3L560.9 353.5L564.3 353L566.5 349.8Z" fill="#FFE779"/>
<path d="M582.2 350.1L583.3 353.4L586.6 354.2L583.7 356.9L583.6 360.6L580.7 358.9L577.3 360.4L578.4 356.7L576.5 353.9L580 353.3L582.2 350.1Z" fill="#63737A"/>
<path d="M598.2 350.5L599.4 353.8L602.7 354.6L599.8 357.3L599.7 361.1L596.8 359.3L593.3 360.9L594.4 357.1L592.4 354.4L596 353.8L598.2 350.5Z" fill="#63737A"/>
<path d="M613.9 152.3C613.368 151.719 612.675 151.308 611.91 151.119C611.145 150.93 610.341 150.972 609.6 151.238C608.858 151.504 608.211 151.984 607.741 152.616C607.271 153.248 606.998 154.006 606.957 154.792C606.915 155.579 607.107 156.361 607.508 157.039C607.91 157.718 608.502 158.262 609.212 158.605C609.922 158.947 610.717 159.073 611.497 158.965C612.278 158.858 613.009 158.522 613.6 158C613.998 157.648 614.322 157.22 614.553 156.742C614.784 156.263 614.918 155.744 614.946 155.213C614.974 154.682 614.896 154.151 614.716 153.651C614.536 153.151 614.259 152.692 613.9 152.3Z" fill="#22272E"/>
<path d="M608.5 142.9L607.8 142.1C607.238 141.479 606.558 140.976 605.8 140.62C605.042 140.263 604.22 140.061 603.384 140.023C602.547 139.986 601.711 140.115 600.924 140.403C600.137 140.691 599.415 141.132 598.8 141.7C598.179 142.262 597.676 142.942 597.32 143.7C596.963 144.459 596.761 145.28 596.724 146.117C596.686 146.953 596.815 147.789 597.103 148.576C597.391 149.363 597.832 150.085 598.4 150.7L599.1 151.5C599.915 152.415 600.499 153.512 600.8 154.7C601 155.6 601.3 156.7 601.6 157.7C601.727 158.199 601.981 158.656 602.336 159.029C602.691 159.401 603.137 159.676 603.629 159.826C604.121 159.977 604.644 159.999 605.146 159.889C605.649 159.779 606.115 159.542 606.5 159.2L611 155.1L615.5 151C615.873 150.651 616.15 150.213 616.306 149.727C616.462 149.24 616.492 148.722 616.391 148.222C616.291 147.721 616.065 147.254 615.734 146.865C615.403 146.477 614.978 146.179 614.5 146C613.5 145.6 612.5 145.3 611.6 145C610.457 144.477 609.409 143.768 608.5 142.9Z" fill="#6DAFA7"/>
<path d="M232.7 282.4L113.1 302.4C112.075 302.565 111.027 302.524 110.018 302.281C109.009 302.037 108.058 301.595 107.22 300.981C106.383 300.367 105.676 299.593 105.14 298.704C104.605 297.814 104.251 296.827 104.1 295.8L88.8001 186.4C88.6574 185.399 88.7461 184.379 89.0593 183.418C89.3726 182.457 89.9021 181.581 90.6072 180.856C91.3122 180.132 92.174 179.579 93.1263 179.24C94.0786 178.901 95.0959 178.784 96.1001 178.9L214.3 192.9C215.956 193.092 217.507 193.806 218.729 194.939C219.952 196.072 220.782 197.564 221.1 199.2L236.3 277.3C236.497 278.453 236.229 279.638 235.554 280.594C234.88 281.55 233.853 282.2 232.7 282.4Z" fill="#F8AB5D"/>
<path d="M237.7 281L118.1 301C117.075 301.165 116.027 301.124 115.018 300.881C114.009 300.637 113.058 300.195 112.22 299.581C111.383 298.967 110.676 298.193 110.14 297.304C109.605 296.414 109.251 295.427 109.1 294.4L93.7 185C93.5573 183.999 93.646 182.979 93.9592 182.018C94.2725 181.057 94.802 180.181 95.5071 179.456C96.2121 178.732 97.0739 178.179 98.0262 177.84C98.9785 177.501 99.9958 177.384 101 177.5L219.2 191.5C220.855 191.692 222.407 192.406 223.629 193.539C224.852 194.672 225.682 196.164 226 197.8L241.2 275.9C241.318 276.466 241.321 277.05 241.207 277.616C241.094 278.183 240.867 278.721 240.54 279.198C240.212 279.674 239.792 280.08 239.304 280.389C238.816 280.699 238.271 280.907 237.7 281Z" fill="#FFE779"/>
<path d="M161.3 275.5L131.8 278.9C130.753 279.043 129.692 278.765 128.849 278.128C128.006 277.491 127.449 276.546 127.3 275.5L116.5 203.3C116.424 202.827 116.457 202.344 116.598 201.886C116.739 201.428 116.983 201.009 117.312 200.661C117.641 200.313 118.045 200.046 118.494 199.879C118.943 199.712 119.424 199.651 119.9 199.7L149.4 201.9C150.312 201.959 151.177 202.328 151.85 202.947C152.524 203.565 152.965 204.396 153.1 205.3L164.1 271.9C164.181 272.744 163.937 273.587 163.416 274.257C162.895 274.926 162.138 275.371 161.3 275.5Z" fill="#22272E"/>
<path d="M163.7 274.2L134.2 277.6C133.153 277.743 132.092 277.465 131.249 276.828C130.406 276.191 129.849 275.246 129.7 274.2L118.9 202C118.824 201.527 118.858 201.043 118.998 200.586C119.139 200.128 119.383 199.709 119.712 199.361C120.041 199.013 120.445 198.746 120.894 198.579C121.343 198.412 121.824 198.351 122.3 198.4L151.8 200.6C152.713 200.658 153.577 201.028 154.251 201.646C154.924 202.265 155.365 203.096 155.5 204L166.5 270.6C166.602 271.448 166.365 272.302 165.841 272.976C165.316 273.65 164.547 274.09 163.7 274.2Z" fill="#6DAFA7"/>
<path d="M134.6 204L139.2 204.3" stroke="#22272E" stroke-width="1.8" stroke-linecap="round" stroke-linejoin="round"/>
<path d="M141.6 204.5H141.9" stroke="#22272E" stroke-width="1.8" stroke-linecap="round" stroke-linejoin="round"/>
<path d="M119.8 207.7L156.4 209.6" stroke="#22272E" stroke-width="1.8" stroke-linecap="round" stroke-linejoin="round"/>
<path d="M128.9 268.6L165.5 265.2" stroke="#22272E" stroke-width="1.8" stroke-linecap="round" stroke-linejoin="round"/>
<path d="M203.4 213C203.9 215.8 202.6 218 200.5 217.9C198.4 217.8 196.1 215.4 195.6 212.6C195.1 209.8 196.4 207.5 198.6 207.7C200.8 207.9 202.8 210.2 203.4 213Z" fill="#22272E"/>
<path d="M207.3 230.9H198.3C197.532 230.905 196.788 230.636 196.201 230.141C195.615 229.646 195.224 228.958 195.1 228.2L194.8 226.6C193.9 221.3 196.4 217.2 200.3 217.3C204.2 217.4 208 221.6 208.9 226.7L209.2 228.5C209.279 228.787 209.289 229.089 209.229 229.381C209.169 229.673 209.042 229.947 208.857 230.181C208.672 230.414 208.435 230.601 208.164 230.726C207.894 230.851 207.598 230.911 207.3 230.9Z" fill="#22272E"/>
<path d="M196.8 246.7C197.3 249.7 195.9 252.2 193.6 252.4C191.3 252.6 188.9 250.2 188.4 247.1C187.9 244 189.3 241.5 191.7 241.4C194.1 241.3 196.2 243.7 196.8 246.7Z" fill="#22272E"/>
<path d="M200.8 265.8L191.3 266.8C190.47 266.889 189.637 266.66 188.969 266.159C188.3 265.658 187.847 264.922 187.7 264.1L187.4 262.5C186.4 256.9 189.1 252.1 193.4 251.8C197.5 251.5 201.6 255.7 202.6 261.1L202.9 262.9C202.976 263.231 202.98 263.573 202.912 263.905C202.844 264.238 202.706 264.552 202.508 264.826C202.309 265.101 202.054 265.33 201.759 265.498C201.465 265.666 201.138 265.769 200.8 265.8Z" fill="#22272E"/>
<path d="M221.2 245.5C221.7 248.3 220.6 250.6 218.6 250.8C216.6 251 214.5 248.7 214 245.9C213.5 243.1 214.7 240.7 216.7 240.6C218.7 240.5 220.7 242.8 221.2 245.5Z" fill="#22272E"/>
<path d="M224.8 263.3L217.4 264.1C216.581 264.187 215.761 263.954 215.109 263.451C214.457 262.949 214.024 262.214 213.9 261.4L213.7 260.1C212.7 254.9 215 250.5 218.6 250.2C222.2 250 225.8 253.9 226.7 258.9L227 260.4C227.091 261.076 226.911 261.761 226.499 262.304C226.086 262.848 225.476 263.206 224.8 263.3Z" fill="#22272E"/>
<path d="M169 232.8L178.2 232.7" stroke="#22272E" stroke-width="1.8" stroke-linecap="round" stroke-linejoin="round"/>
<path d="M178 236.9L183.2 233.5C183.343 233.416 183.459 233.293 183.537 233.147C183.615 233 183.65 232.835 183.64 232.669C183.63 232.504 183.574 232.344 183.478 232.209C183.383 232.073 183.252 231.966 183.1 231.9L176.7 228.6C176.548 228.508 176.373 228.464 176.196 228.474C176.019 228.484 175.849 228.547 175.708 228.656C175.568 228.764 175.463 228.912 175.408 229.08C175.353 229.249 175.35 229.43 175.4 229.6L176.6 236.3C176.616 236.455 176.672 236.603 176.764 236.728C176.856 236.853 176.98 236.952 177.123 237.013C177.266 237.074 177.423 237.096 177.577 237.076C177.731 237.056 177.877 236.996 178 236.9Z" fill="#22272E"/>
<path d="M407.6 574.5C407.6 574.5 409 588.2 410.2 595.3C410.5 597.4 418.4 599.8 425.6 598.3C434.5 596.5 435 591.4 435 591.4C435 591.4 433.3 567.4 433.1 565.7C432.9 564 408.9 568.5 407.6 574.5Z" fill="#B28D93"/>
<path d="M432.8 583.4C425.9 586.9 416.9 587 411.6 586.7C410.424 586.638 409.307 586.162 408.448 585.357C407.588 584.552 407.04 583.469 406.9 582.3C406.4 577.9 406 574.5 406 574.5C407.4 567.8 434.3 562.8 434.5 564.7C434.6 565.6 435.1 572.1 435.6 578.6C435.645 579.585 435.405 580.561 434.908 581.413C434.411 582.264 433.679 582.954 432.8 583.4Z" fill="#22272E"/>
<path d="M410 594.5C410 594.5 408.7 596.2 409.3 600.1C409.9 604 409.2 621.5 411.4 623.6C413.6 625.7 438.4 624.2 449.5 621.7C461.4 619 468.9 614.3 469.7 611.8C470.9 608.2 469.9 607.7 457.6 604.1C445.3 600.5 439.1 595.4 436.5 592.5C435.983 591.896 435.35 591.402 434.638 591.049C433.926 590.695 433.15 590.489 432.356 590.442C431.563 590.396 430.768 590.51 430.019 590.777C429.271 591.045 428.584 591.461 428 592C426.5 593.3 424.7 598 421.4 598C413.5 597.9 410.8 594.1 410 594.5Z" fill="#22272E"/>
<path d="M453.1 601.4C453.1 601.4 443.9 602.2 437.2 611.8" stroke="white" stroke-width="1.8" stroke-linecap="round" stroke-linejoin="round"/>
<path d="M445.5 597.9C442.609 598.392 439.853 599.483 437.408 601.102C434.963 602.72 432.883 604.831 431.3 607.3" stroke="white" stroke-width="1.8" stroke-linecap="round" stroke-linejoin="round"/>
<path d="M324 574.8C324 574.8 322.6 594.1 322.4 595C322.2 595.9 323.8 600.6 333.3 601.9C342.8 603.2 346 597.4 346 597.4C346 597.4 349.4 579.7 350 576.5C350.6 573.3 327.1 571.5 324 574.8Z" fill="#B28D93"/>
<path d="M351.8 576.1C351.5 577.4 350.8 581 350.1 585C349.911 586.068 349.379 587.046 348.585 587.786C347.792 588.525 346.779 588.986 345.7 589.1C338.79 589.876 331.794 588.985 325.3 586.5C324.26 586.109 323.376 585.39 322.781 584.452C322.185 583.514 321.911 582.407 322 581.3C322.3 577.3 322.5 574 322.5 574C325.9 570.3 352.5 572.5 351.8 576.1Z" fill="#22272E"/>
<path d="M322.4 594.3C322.4 594.3 320 594.9 319.8 599C319.6 603.1 314.9 621.8 315.1 623.8C315.3 625.8 316.4 628.3 331.5 628.1C346.6 627.9 355 628.7 357.8 626.3C360.6 623.9 356.8 618.4 354 613.4C351.2 608.4 347 600.9 346.3 596.8C345.281 597.512 344.171 598.084 343 598.5C342.1 598.6 341.2 594.3 335.6 594.3C329.1 594.3 326.8 597.9 326.2 597.8C324.542 597.147 323.187 595.899 322.4 594.3Z" fill="#22272E"/>
<path d="M326.5 606.4C326.5 606.4 337.7 602.2 347.6 606.4" stroke="white" stroke-width="1.8" stroke-linecap="round" stroke-linejoin="round"/>
<path d="M325.7 612.1C325.7 612.1 339 607.9 350 612.1" stroke="white" stroke-width="1.8" stroke-linecap="round" stroke-linejoin="round"/>
<path d="M349.4 395.6C349.4 395.6 370.6 401.4 396 410.4C420 418.9 429.4 423.9 432 440.6C434.6 457.3 431.4 516.8 434.6 532.5C437.8 548.2 441.5 559.3 438.4 567.4C437.875 568.97 437.037 570.418 435.937 571.656C434.837 572.893 433.498 573.895 432 574.6C432 574.6 419.1 580.1 407.6 577.5C405.412 576.819 403.383 575.708 401.631 574.231C399.879 572.754 398.441 570.941 397.4 568.9C393.6 561.8 397.3 538.9 394.4 521.8C391.5 504.7 388.3 476.5 384.8 457.6C381.3 438.7 324.3 431.1 317 416.2C309.7 401.3 313.5 388.2 313.5 388.2C313.5 388.2 343 387.6 349.4 395.6Z" fill="#22272E"/>
<path d="M334.6 414.6C334.568 412.085 334.334 409.577 333.9 407.1" stroke="#63737A" stroke-width="1.8" stroke-linecap="round" stroke-linejoin="round"/>
<path d="M432.9 451.6C431.658 451.92 430.382 452.088 429.1 452.1C420.3 452.1 412.8 444.7 412.4 435.7C412.257 432.802 412.908 429.92 414.283 427.365C415.658 424.81 417.703 422.678 420.2 421.2C427.1 425.8 430.6 431.5 432 440.7C432.4 443.3 432.7 447.1 432.9 451.6Z" stroke="#63737A" stroke-width="1.8" stroke-linecap="round" stroke-linejoin="round"/>
<path d="M250.7 396.9C250.7 396.9 249.9 404.3 250.6 421.2C251.3 437.7 263.9 459.3 290.9 459.6C317.9 459.9 333.8 459.6 333.8 459.6C333.8 459.6 331.7 469.2 330.7 493.7C329.7 518.2 322.3 535 317.5 550.3C313.3 563.7 313.3 573.1 323 577.6C331.857 580.692 341.234 582.017 350.6 581.5C350.6 581.5 358 580.9 360.2 563.2C362.4 545.5 371.8 511.3 379.5 489.3C387.2 467.3 393.3 439.1 381.4 429.5C369.5 419.9 329 414.1 326.9 413.1C324.8 412.1 325.1 398.6 322.6 390.3C320.2 381.8 258.8 380.2 250.7 396.9Z" fill="#22272E"/>
<path d="M379.6 489.2C387.3 467.3 393.4 439 381.5 429.4C369.6 419.8 329.1 414 327 413" stroke="#63737A" stroke-width="1.8" stroke-linecap="round" stroke-linejoin="round"/>
<path d="M327.1 413C327.1 413 316.7 411 312.5 411.7" stroke="#63737A" stroke-width="1.8" stroke-linecap="round" stroke-linejoin="round"/>
<path d="M252.5 432.1C256 430.6 261.2 426.9 264.4 417.8" stroke="#63737A" stroke-width="1.8" stroke-linecap="round" stroke-linejoin="round"/>
<path d="M333.8 459.6C334.961 456.484 336.728 453.629 339 451.2" stroke="#63737A" stroke-width="1.8" stroke-linecap="round" stroke-linejoin="round"/>
<path d="M388.1 452.4C386.851 454.972 384.904 457.143 382.482 458.663C380.06 460.183 377.26 460.993 374.4 461C365.6 461 358.1 453.6 357.7 444.6C357.565 442.495 357.862 440.385 358.575 438.401C359.288 436.416 360.401 434.599 361.845 433.061C363.288 431.524 365.032 430.299 366.968 429.463C368.904 428.627 370.991 428.197 373.1 428.2C375.286 428.208 377.447 428.655 379.457 429.514C381.467 430.372 383.284 431.626 384.8 433.2C387.7 437.9 388.6 444.7 388.1 452.4Z" stroke="#63737A" stroke-width="1.8" stroke-linecap="round" stroke-linejoin="round"/>
<path d="M327.1 587.2C326.881 586.145 326.881 585.055 327.1 584" stroke="#63737A" stroke-width="1.8" stroke-linecap="round" stroke-linejoin="round"/>
<path d="M335.8 589.1C336.315 587.993 336.653 586.812 336.8 585.6" stroke="#63737A" stroke-width="1.8" stroke-linecap="round" stroke-linejoin="round"/>
<path d="M345 589.1C345.617 588.141 346.088 587.097 346.4 586" stroke="#63737A" stroke-width="1.8" stroke-linecap="round" stroke-linejoin="round"/>
<path d="M413 586.7C412.434 585.388 412.031 584.011 411.8 582.6" stroke="#63737A" stroke-width="1.8" stroke-linecap="round" stroke-linejoin="round"/>
<path d="M424.1 586.1C424.269 584.594 424.168 583.07 423.8 581.6" stroke="#63737A" stroke-width="1.8" stroke-linecap="round" stroke-linejoin="round"/>
<path d="M433.9 582.6C434.197 581.178 434.163 579.707 433.8 578.3" stroke="#63737A" stroke-width="1.8" stroke-linecap="round" stroke-linejoin="round"/>
<path d="M328.9 281.1C328.9 281.1 338.8 282.8 354.6 286.5C364.374 288.699 374.253 290.402 384.2 291.6C384.2 291.6 400.5 284.3 419.8 276C430.876 271.134 442.191 266.829 453.7 263.1C453.7 263.1 458.7 263.5 461.6 270.8C462.716 273.591 463.162 276.605 462.9 279.6C462.835 280.368 462.594 281.11 462.195 281.769C461.796 282.429 461.25 282.987 460.6 283.4C456.2 286.3 444.1 294.4 425.1 307.5C400.9 324.2 390.8 325.4 378.8 324.9C365.5 324.3 332.5 318.9 332.5 318.9C332.5 318.9 323.6 317.2 320.5 301.3C317.6 285.4 325.8 280.5 328.9 281.1Z" fill="#FFE779"/>
<path d="M384 324.9C384 324.9 380.1 323.8 382.7 319.4C385.3 315 395.5 311.5 401.8 314.1C407.1 316.3 403.9 320 403.9 320" stroke="#F8AB5D" stroke-width="1.8" stroke-linecap="round" stroke-linejoin="round"/>
<path d="M447.5 265.2C446.992 268.997 447.618 272.858 449.3 276.3C452.6 282.8 456.6 284.9 457.8 285.3" stroke="#F8AB5D" stroke-width="1.8" stroke-linecap="round" stroke-linejoin="round"/>
<path d="M453.7 263.1C453.7 263.1 452.9 269.2 455.4 274.3C456.327 276.371 457.652 278.24 459.3 279.8C459.79 280.25 460.396 280.554 461.05 280.678C461.704 280.801 462.379 280.74 463 280.5C464.172 279.951 465.419 279.581 466.7 279.4C468.9 279.2 474.9 280.5 478.4 278C481.9 275.5 482.7 275.2 483.2 275.1C483.7 275 489 275 489.9 274.6C491.7 273.8 492.1 270.8 491.2 269.6C490.4 268.6 485.2 268.5 484.2 267C483.2 265.5 484.1 263.9 489.7 262.5C495.3 261.1 505.2 258 504.9 255.6C504.6 253.2 499.3 255 492.5 255.7C485.7 256.4 482.5 256.6 479.7 255.5C476.9 254.4 473.1 254.5 468.8 256.6C466 258 463 259.2 457.7 261.5C456.417 262.152 455.079 262.688 453.7 263.1Z" fill="#B28D93"/>
<path d="M490.6 262.3C491.167 263.911 491.504 265.595 491.6 267.3C491.7 269.5 488.5 275.5 486.2 276.6C483.9 277.7 482.4 276.5 481.4 274.9C480.4 273.3 477.8 263.8 482.8 262.7C487.8 261.6 489.6 261.4 490.6 262.3Z" fill="#B28D93"/>
<path d="M491.1 269.6C490.3 268.6 485.1 268.5 484.1 267C483.1 265.5 484 263.9 489.6 262.5C495.2 261.1 505.1 258 504.8 255.6" stroke="#896068" stroke-width="1.8" stroke-linecap="round" stroke-linejoin="round"/>
<path d="M482 256.2C480.119 256.1 478.233 256.269 476.4 256.7" stroke="#896068" stroke-width="1.8" stroke-linecap="round" stroke-linejoin="round"/>
<path d="M478.3 278C481.8 275.4 482.6 275.2 483.1 275.1C483.6 275 488.9 275 489.8 274.6" stroke="#896068" stroke-width="1.8" stroke-linecap="round" stroke-linejoin="round"/>
<path d="M292.1 270.5C292.1 270.5 293.2 266.4 300.7 266.8C308.2 267.2 319.1 271.1 319.8 276.7C320.5 282.3 295.6 285.4 292.1 270.5Z" fill="#22272E"/>
<path d="M345.6 315.8C344.6 284.2 329 281.1 329 281.1C316.19 279.211 303.247 278.375 290.3 278.6C269.1 279 252.5 282.6 243.9 294.8C236.3 305.6 219.7 353.5 224 366.8C227.6 378 238.2 380.7 257.2 377.4C256 384.4 254.6 389.9 254.6 389.9C262.6 395.7 280.3 401.4 306.8 401.4C330.4 401.4 342.3 393.7 342.3 393.7C341.4 386.6 346.5 347.4 345.6 315.8Z" fill="#FFE779"/>
<path d="M320 288.5C321.1 295.2 321.6 309.8 323.4 323.6C325.2 337.4 325.5 357.7 325.6 377.1C325.649 388.719 326.821 400.306 329.1 411.7C342.6 407.2 352.2 396.6 352.2 396.6C352.2 396.6 353.5 395 350 382.1C346.5 369.2 345.6 323.6 345.6 323.6C346.133 316.013 345.73 308.389 344.4 300.9C342.2 290 334.8 282.3 329.1 280.5C326.001 279.501 322.756 279.028 319.5 279.1C319.5 279.1 319.7 284.2 320 288.5Z" fill="#6DAFA7"/>
<path d="M293.7 259.1C293.7 259.1 293.1 270.5 293.1 276.1C293.1 285.9 306.5 296 311.5 296C319.6 296 321 286.5 320.6 282.3C320.2 278.1 320.1 265.9 320.2 265.6C320.3 265.3 298.7 253.7 293.7 259.1Z" fill="#B28D93"/>
<path d="M298.5 265.1C300 277.5 309.9 284 320.6 283.6C320.621 283.197 320.587 282.794 320.5 282.4C320.3 280.7 320.2 277.7 320.2 274.8C312.5 278.8 303 272.3 298.5 265.1Z" fill="#896068"/>
<path d="M305.6 293.8C304.9 305.7 309.3 335.3 309.3 368.9C309.3 402.5 304.4 416.3 304.4 416.3C263.1 421.2 242.1 403.8 242.1 403.8C242.1 403.8 243.7 400.3 247.2 390.6C250.7 380.9 250.7 369 250.7 369C250.7 369 255.5 325.1 253.8 315.3C252.1 305.5 245.8 292.5 245.8 292.5C245.8 292.5 250.8 285.2 264.2 281.5C274.6 278.6 285.9 278.3 290.4 278.3L290.3 278.8C294.9 289.1 305.6 293.8 305.6 293.8Z" fill="#6DAFA7"/>
<path d="M269.9 383.6C276.628 385.507 283.612 386.35 290.6 386.1C291.9 386 292.9 386.8 292.8 387.8V387.9C292.68 388.344 292.421 388.739 292.061 389.027C291.702 389.314 291.26 389.48 290.8 389.5C286.3 389.8 274.7 389.1 268.7 386.7C268.265 386.568 267.893 386.282 267.654 385.895C267.415 385.509 267.324 385.048 267.4 384.6C267.6 383.7 268.8 383.3 269.9 383.6Z" fill="#EAF9F3"/>
<path d="M335.4 383.3C337.4 382.8 341.9 381.8 346.8 380.1C347.5 379.9 348.3 380.5 348.5 381.5V381.6C348.616 381.909 348.62 382.248 348.51 382.559C348.4 382.87 348.184 383.133 347.9 383.3C345.6 384.2 339.8 386.3 336.1 386.5C335.749 386.458 335.418 386.312 335.151 386.08C334.883 385.848 334.691 385.542 334.6 385.2C334.4 384.3 334.7 383.5 335.4 383.3Z" fill="#EAF9F3"/>
<path d="M336.4 333.8H335.9C328.3 337.9 323.9 337.7 323.4 333.9C324.2 333.4 324.9 332.9 325.6 332.4C327.267 331.325 329.14 330.61 331.1 330.3C332.557 330.056 334.025 329.889 335.5 329.8C335.5 329.8 337.7 329.3 338.1 330.1C338.5 330.7 338.4 332.2 336.4 333.8Z" fill="#B28D93"/>
<path d="M386.8 368.9L330 368.8C329.579 368.802 329.163 368.716 328.778 368.547C328.393 368.377 328.048 368.129 327.765 367.818C327.482 367.507 327.268 367.14 327.136 366.74C327.004 366.341 326.958 365.918 327 365.5L331.3 321.5C331.391 320.55 331.85 319.673 332.579 319.057C333.307 318.441 334.248 318.133 335.2 318.2L392.2 322C392.833 322.061 393.418 322.367 393.829 322.853C394.24 323.338 394.445 323.965 394.4 324.6L389.8 366.2C389.725 366.943 389.377 367.631 388.822 368.13C388.267 368.629 387.546 368.904 386.8 368.9Z" fill="#22272E"/>
<path d="M367.4 326.9C367.43 326.753 367.427 326.601 367.39 326.456C367.353 326.31 367.284 326.175 367.188 326.06C367.092 325.944 366.972 325.852 366.835 325.79C366.699 325.728 366.55 325.697 366.4 325.7C366.066 325.716 365.747 325.842 365.494 326.06C365.24 326.277 365.066 326.573 365 326.9C364.97 327.047 364.973 327.199 365.01 327.344C365.047 327.49 365.115 327.625 365.212 327.74C365.308 327.856 365.428 327.948 365.565 328.01C365.701 328.072 365.85 328.103 366 328.1C366.329 328.069 366.64 327.937 366.89 327.722C367.141 327.507 367.319 327.22 367.4 326.9Z" fill="#63737A"/>
<path d="M316.1 358C315.996 358.433 315.786 358.833 315.489 359.164C315.193 359.496 314.818 359.749 314.4 359.9C299.678 366.185 284.459 371.236 268.9 375C264.7 376 260.7 376.9 257.1 377.5C238 380.7 227.5 378.1 223.9 366.9C219.6 353.6 236.2 305.8 243.8 294.9C244.411 294.024 245.079 293.188 245.8 292.4C256.3 284.2 267.2 292.2 269.6 305.6C270.8 312.7 267.8 320.5 265.3 329.4C263.5 335.8 258.9 346.1 258.9 346.1L311.3 340.7C311.768 340.627 312.247 340.681 312.687 340.857C313.127 341.033 313.511 341.324 313.8 341.7C318.6 347 317 354.9 316.1 358Z" fill="#FFE779"/>
<path d="M258.9 346C258.9 346 248.7 347.2 244.8 349.8" stroke="#F8AB5D" stroke-width="1.8" stroke-linecap="round" stroke-linejoin="round"/>
<path d="M304.2 341.3C304.2 341.3 301.4 344.5 302.5 351.2C303.7 358.5 306.9 360.5 309.1 362" stroke="#F8AB5D" stroke-width="1.8" stroke-linecap="round" stroke-linejoin="round"/>
<path d="M223.9 367.8C223.9 367.8 222.8 361.8 231.5 361.7C240.2 361.6 250 373.6 243.9 378.8" stroke="#F8AB5D" stroke-width="1.8" stroke-linecap="round" stroke-linejoin="round"/>
<path d="M356 348.8C355.4 350.7 350.8 348.9 347.3 347.9C342.8 346.6 339.8 345.6 339.5 345.5C342.411 347.068 345.187 348.874 347.8 350.9C351.4 353.6 354.1 356.5 352.9 357.9C351.7 359.3 344.5 355.1 344.5 355.1C344.5 355.1 347.1 356.9 347.7 359C348.3 361.1 344.8 360.4 338.2 356.4C338.2 356.4 335.7 356.5 331 358.6C326.3 360.7 319.3 359.7 317.1 359C316.223 358.741 315.314 358.607 314.4 358.6C313.896 358.595 313.401 358.475 312.95 358.25C312.5 358.025 312.106 357.7 311.8 357.3C309.936 355.045 308.757 352.304 308.4 349.4C308 345.7 308.9 343.6 309.6 342.6C309.922 342.079 310.418 341.69 311 341.5C312.204 341.092 313.374 340.59 314.5 340C315.4 339.5 318.7 337.1 322 334.9C322.483 334.591 322.95 334.257 323.4 333.9C327.565 334.114 331.739 334.08 335.9 333.8H336.4C340.7 333.5 352.2 334.5 353.4 335.8C354.6 337.1 352.9 338.8 347.5 338.7C344.589 338.693 341.682 338.894 338.8 339.3C341.781 340.047 344.692 341.051 347.5 342.3C351.7 344.2 356.7 346.9 356 348.8Z" fill="#B28D93"/>
<path d="M339.6 345.5C339.6 345.5 338 344.9 336.8 344.6C336.08 344.419 335.342 344.319 334.6 344.3" stroke="#896068" stroke-width="1.8" stroke-linecap="round" stroke-linejoin="round"/>
<path d="M344.5 355.1C344.5 355.1 341.2 351.7 337.4 350.9C335.7 350.6 334.6 350.5 334.6 350.5" stroke="#896068" stroke-width="1.8" stroke-linecap="round" stroke-linejoin="round"/>
<path d="M338.9 339.3C337.455 339.243 336.01 339.378 334.6 339.7" stroke="#896068" stroke-width="1.8" stroke-linecap="round" stroke-linejoin="round"/>
<path d="M330.2 334C329.395 334.011 328.592 333.944 327.8 333.8" stroke="#896068" stroke-width="1.8" stroke-linecap="round" stroke-linejoin="round"/>
<path d="M319.7 283.5C319.6 282.169 319.6 280.831 319.7 279.5C319.828 278.573 319.862 277.634 319.8 276.7V274.4C319.8 274.4 320.4 275.7 321.6 277.8C322.8 279.9 321 289.1 320.1 290.2L319.7 283.5Z" fill="#22272E"/>
<path d="M330.6 239C330.214 245.094 330.214 251.206 330.6 257.3C330.863 261.875 329.602 266.407 327.014 270.189C324.427 273.97 320.659 276.788 316.3 278.2C309.6 280.3 297 275.1 294 260.2C291 245.3 284.5 228.5 301.9 222.4C319.3 216.3 330.8 224.8 330.6 239Z" fill="#B28D93"/>
<path d="M293 249.5C293 249.5 295.1 248.2 295.8 243.8C295.841 243.309 295.998 242.836 296.259 242.418C296.52 242.001 296.877 241.652 297.3 241.4C298.301 240.964 299.18 240.29 299.86 239.435C300.54 238.581 301 237.573 301.2 236.5C301.4 234.6 302.2 233.2 304.2 234.3C319.9 243.4 330.3 235.1 330.3 235.1L330.4 240.8C336.5 239.1 340.2 231.1 339 225.2C337.5 217.8 334.7 219.2 331.2 213.6C327.7 208 321.3 204.1 313.1 207C304.9 209.9 301.9 211.2 295.5 211.1C289.1 211 283 213.7 282.5 219.7C282 225.7 276.5 227.5 275.5 233.1C274.5 238.7 276.7 241.5 278.8 243.7C280.9 245.9 276.9 252.1 282.2 257.3C287.5 262.5 291 264.1 293.2 267.5C293.5 267.5 294.3 258.3 293 249.5Z" fill="#22272E"/>
<path d="M294.8 251.2C294.8 251.2 291 244.8 285.9 247.7C280.8 250.6 286.2 260.6 294.1 260.1" fill="#B28D93"/>
<path d="M322.1 246.3C322.457 247.303 322.963 248.247 323.6 249.1C323.875 249.455 324.176 249.79 324.5 250.1C325.029 250.467 325.473 250.945 325.8 251.5C326.111 252.082 326.281 252.729 326.299 253.388C326.316 254.048 326.179 254.702 325.9 255.3C325.685 255.87 325.343 256.383 324.9 256.8C324.505 257.247 323.981 257.562 323.4 257.7C324.02 256.887 324.401 255.918 324.5 254.9C324.618 254.055 324.514 253.193 324.2 252.4C324 252 323.8 251.9 323.3 251.4C322.875 250.93 322.536 250.388 322.3 249.8C321.886 248.679 321.817 247.461 322.1 246.3Z" fill="#22272E"/>
<path d="M316.7 266C315.378 266.111 314.051 265.851 312.867 265.251C311.684 264.65 310.691 263.733 310 262.6" stroke="#22272E" stroke-width="1.8" stroke-linecap="round" stroke-linejoin="round"/>
<path d="M311 250.5C310.815 250.504 310.631 250.471 310.459 250.402C310.288 250.333 310.132 250.23 310.001 250.099C309.87 249.968 309.767 249.812 309.698 249.641C309.629 249.469 309.596 249.285 309.6 249.1V247.7C309.596 247.515 309.629 247.331 309.698 247.159C309.767 246.988 309.87 246.832 310.001 246.701C310.132 246.57 310.288 246.467 310.459 246.398C310.631 246.329 310.815 246.296 311 246.3C311.185 246.296 311.369 246.329 311.54 246.398C311.712 246.467 311.868 246.57 311.999 246.701C312.13 246.832 312.233 246.988 312.302 247.159C312.371 247.331 312.404 247.515 312.4 247.7V249.1C312.392 249.469 312.242 249.821 311.981 250.081C311.721 250.342 311.369 250.492 311 250.5Z" fill="#22272E"/>
<path d="M326.5 250.5C326.315 250.504 326.131 250.471 325.959 250.402C325.788 250.333 325.632 250.23 325.501 250.099C325.37 249.968 325.267 249.812 325.198 249.641C325.129 249.469 325.096 249.285 325.1 249.1V247.7C325.096 247.515 325.129 247.331 325.198 247.159C325.267 246.988 325.37 246.832 325.501 246.701C325.632 246.57 325.788 246.467 325.959 246.398C326.131 246.329 326.315 246.296 326.5 246.3C326.685 246.296 326.869 246.329 327.04 246.398C327.212 246.467 327.368 246.57 327.499 246.701C327.63 246.832 327.733 246.988 327.802 247.159C327.871 247.331 327.904 247.515 327.9 247.7V249.1C327.892 249.469 327.742 249.821 327.481 250.081C327.221 250.342 326.869 250.492 326.5 250.5Z" fill="#22272E"/>
<path d="M313 243.2C312 243.6 311.3 242.4 309.8 242.8C307.5 243.5 306.4 244.3 306 243.3C305.7 242.6 307.1 240.8 309.3 240.2C312.5 239.5 314.8 242.5 313 243.2Z" fill="#22272E"/>
<path d="M324.6 243.2C325.4 243.5 326 242.4 327.1 242.7C328.6 243.2 329.4 243.8 329.6 243C329.8 242.4 329 240.8 327.5 240.3C325.1 239.5 323 242.6 324.6 243.2Z" fill="#22272E"/>
<path d="M286.7 251.9C286.757 251.687 286.857 251.488 286.995 251.316C287.133 251.144 287.305 251.002 287.5 250.9C287.708 250.732 287.949 250.61 288.207 250.541C288.466 250.472 288.736 250.458 289 250.5C289.563 250.615 290.062 250.936 290.4 251.4C290.67 251.777 290.904 252.179 291.1 252.6C291.368 253.313 291.569 254.05 291.7 254.8C291.8 255.1 291.8 255.3 292 255.5C292.288 255.745 292.631 255.917 293 256C292.616 256.251 292.155 256.357 291.7 256.3C291.177 256.157 290.718 255.839 290.4 255.4C289.983 254.743 289.648 254.038 289.4 253.3C289.285 252.992 289.152 252.691 289 252.4C288.925 252.194 288.784 252.018 288.6 251.9C288.3 251.5 287.5 251.6 286.7 251.9Z" fill="#22272E"/>
<path d="M295.7 313.6C296.1 317.4 293.6 321.5 290 321.8C288.248 321.865 286.537 321.262 285.214 320.111C283.891 318.961 283.056 317.35 282.878 315.606C282.7 313.862 283.192 312.116 284.255 310.722C285.317 309.328 286.871 308.39 288.6 308.1C292.3 307.7 295.4 309.8 295.7 313.6Z" fill="#FFE779"/>
<path d="M305.6 293.8C305.6 293.8 294.9 289.1 290.2 278.7L292.1 270.5C294.302 274.707 297.716 278.156 301.9 280.4C303.031 280.981 303.989 281.852 304.674 282.923C305.359 283.995 305.748 285.229 305.8 286.5C305.878 288.935 305.811 291.373 305.6 293.8Z" fill="#22272E"/>
<path d="M174.5 352.3C174.503 353.023 174.362 353.739 174.087 354.408C173.811 355.076 173.406 355.684 172.895 356.195C172.384 356.706 171.776 357.111 171.108 357.387C170.439 357.662 169.723 357.803 169 357.8C167.545 357.787 166.154 357.203 165.125 356.175C164.097 355.146 163.513 353.755 163.5 352.3C163.5 350.841 164.079 349.442 165.111 348.411C166.142 347.379 167.541 346.8 169 346.8C170.459 346.8 171.858 347.379 172.889 348.411C173.921 349.442 174.5 350.841 174.5 352.3Z" fill="#22272E"/>
<path d="M174.5 371.6H163.5C162.908 371.603 162.322 371.488 161.775 371.263C161.228 371.038 160.731 370.706 160.312 370.288C159.894 369.869 159.562 369.372 159.337 368.825C159.112 368.278 158.997 367.692 159 367.1C159 364.448 160.054 361.904 161.929 360.029C163.804 358.154 166.348 357.1 169 357.1C171.652 357.1 174.196 358.154 176.071 360.029C177.946 361.904 179 364.448 179 367.1C179.003 367.692 178.888 368.278 178.663 368.825C178.438 369.372 178.106 369.869 177.688 370.288C177.27 370.706 176.772 371.038 176.225 371.263C175.678 371.488 175.092 371.603 174.5 371.6Z" fill="#22272E"/>
<path d="M141 359.2C140.993 365.094 142.846 370.84 146.295 375.619C149.744 380.399 154.613 383.968 160.209 385.818C165.805 387.669 171.842 387.706 177.46 385.925C183.079 384.145 187.992 380.636 191.5 375.9" stroke="#6DAFA7" stroke-width="1.8" stroke-linecap="round" stroke-linejoin="round"/>
<path d="M194.5 379.2L194.7 370.2L186.8 374.5L194.5 379.2Z" fill="#6DAFA7"/>
<path d="M196.9 359.2C196.895 353.223 194.977 347.404 191.427 342.595C187.877 337.786 182.882 334.239 177.171 332.473C171.461 330.708 165.335 330.816 159.69 332.782C154.045 334.748 149.178 338.469 145.8 343.4" stroke="#6DAFA7" stroke-width="1.8" stroke-linecap="round" stroke-linejoin="round"/>
<path d="M142.7 340.2L142.9 349.1L150.6 344.5L142.7 340.2Z" fill="#6DAFA7"/>
</svg>
