<svg xmlns="http://www.w3.org/2000/svg" xmlns:xlink="http://www.w3.org/1999/xlink" width="1080" zoomAndPan="magnify" viewBox="0 0 810 809.999993" height="1080" preserveAspectRatio="xMidYMid meet" version="1.0"><path fill="#000000" d="M 405 81 C 226.347656 81 81 226.347656 81 405 C 81 583.652344 226.347656 729 405 729 C 583.652344 729 729 583.652344 729 405 C 729 226.347656 583.652344 81 405 81 Z M 610 596.601562 C 567.738281 524.410156 490.253906 479.175781 404.988281 479.175781 C 319.738281 479.175781 242.265625 524.410156 200 596.609375 C 153.035156 546.394531 124.199219 479.019531 124.199219 405 C 124.199219 250.164062 250.164062 124.199219 405 124.199219 C 559.835938 124.199219 685.800781 250.164062 685.800781 405 C 685.800781 479.019531 656.964844 546.394531 610 596.601562 Z M 610 596.601562 " fill-opacity="1" fill-rule="nonzero"/><path fill="#000000" d="M 405 176.78125 C 332.175781 176.78125 272.921875 236.027344 272.921875 308.859375 C 272.921875 381.6875 332.175781 440.941406 405 440.941406 C 477.828125 440.941406 537.082031 381.6875 537.082031 308.859375 C 537.082031 236.027344 477.828125 176.78125 405 176.78125 Z M 405 176.78125 " fill-opacity="1" fill-rule="nonzero"/></svg>